<svg xmlns="http://www.w3.org/2000/svg" width="560" height="500" style="shape-rendering:geometricPrecision;text-rendering:geometricPrecision;image-rendering:optimizeQuality;fill-rule:evenodd;clip-rule:evenodd"><path style="opacity:.588" fill="#c7c6c6" d="M352.5 49.5c-5.394 2.239-11.061 3.906-17 5 5.162-3.044 10.828-4.711 17-5Z"/><path style="opacity:1" fill="#242021" d="M352.5 49.5h7c.515 13.729-1.485 27.062-6 40-2.508 3.682-4.508 7.682-6 12-1.75 1.159-2.75 2.826-3 5 0 .667-.333 1-1 1-1.406.473-2.073 1.473-2 3-4.972 5.307-9.972 10.64-15 16-1.904.238-3.238 1.238-4 3 0 .667-.333 1-1 1-1.527-.073-2.527.594-3 2-.342.838-1.008 1.172-2 1-8.8 4.488-18.133 7.155-28 8h-9v-17a269.378 269.378 0 0 1 4-18c.542-3.412 1.875-6.412 4-9a24.763 24.763 0 0 0 5-8c1.406-.473 2.073-1.473 2-3 2.39-1.39 4.057-3.39 5-6 5.36-5.028 10.693-10.028 16-15 2.353-.84 4.353-2.174 6-4a68.713 68.713 0 0 0 14-7c5.939-1.094 11.606-2.761 17-5Z"/><path style="opacity:.165" fill="#dddcdd" d="M335.5 54.5a68.713 68.713 0 0 1-14 7c4.081-3.374 8.747-5.707 14-7Z"/><path style="opacity:.224" fill="#d7d6d6" d="M321.5 61.5c-1.647 1.826-3.647 3.16-6 4 1.302-2.322 3.302-3.655 6-4Z"/><path style="opacity:.702" fill="#b3b1b2" d="M315.5 65.5c-5.307 4.972-10.64 9.972-16 15 4.048-6.382 9.382-11.382 16-15Z"/><path style="opacity:.204" fill="#cccbcb" d="M359.5 49.5c2.282 13.932.282 27.266-6 40 4.515-12.938 6.515-26.271 6-40Z"/><path style="opacity:.765" fill="#bcbbbb" d="M299.5 80.5c-.943 2.61-2.61 4.61-5 6 .973-2.635 2.64-4.635 5-6Z"/><path style="opacity:.467" fill="#c7c6c6" d="M294.5 86.5c.073 1.527-.594 2.527-2 3-.073-1.527.594-2.527 2-3Z"/><path style="opacity:.31" fill="#cccbcb" d="M292.5 89.5a24.763 24.763 0 0 1-5 8c.669-3.349 2.336-6.016 5-8Z"/><path style="opacity:.29" fill="#cdcccc" d="M353.5 89.5c-.96 4.586-2.96 8.586-6 12 1.492-4.318 3.492-8.318 6-12Z"/><path style="opacity:.259" fill="#d1d0d0" d="M347.5 101.5c-.25 2.174-1.25 3.841-3 5 .25-2.174 1.25-3.841 3-5Z"/><path style="opacity:.082" fill="#d0d0d0" d="M343.5 107.5c.073 1.527-.594 2.527-2 3-.073-1.527.594-2.527 2-3Z"/><path style="opacity:.804" fill="#b3b1b2" d="M283.5 106.5a269.378 269.378 0 0 0-4 18h-1c.443-6.449 2.11-12.449 5-18Z"/><path style="opacity:.086" fill="#e6e5e6" d="M341.5 110.5c-3.618 6.618-8.618 11.952-15 16 5.028-5.36 10.028-10.693 15-16Z"/><path style="opacity:.137" fill="#d9d8d8" d="M326.5 126.5c-.762 1.762-2.096 2.762-4 3 .762-1.762 2.096-2.762 4-3Z"/><path style="opacity:.89" fill="#949292" d="M278.5 124.5h1v17h9v1a25.879 25.879 0 0 1-10-1c-1.233-5.652-1.233-11.319 0-17Z"/><path style="opacity:.008" fill="#ecebeb" d="M321.5 130.5c-.473 1.406-1.473 2.073-3 2 .473-1.406 1.473-2.073 3-2Z"/><path style="opacity:.247" fill="#d6d5d6" d="M316.5 133.5c-2.602 2.31-5.602 4.143-9 5.5a55.22 55.22 0 0 1-19 3.5v-1c9.867-.845 19.2-3.512 28-8Z"/><path style="opacity:.855" fill="#a3a1a2" d="M220.5 146.5v1h-12v-1c4.071-.912 8.071-.912 12 0Z"/><path style="opacity:.596" fill="#cfcecf" d="M208.5 146.5v1a256.928 256.928 0 0 0-22 4c6.931-2.897 14.264-4.564 22-5Z"/><path style="opacity:.314" fill="#d4d4d4" d="M220.5 147.5v-1c5.684-.239 11.018.761 16 3a331.672 331.672 0 0 0-16-2Z"/><path style="opacity:.698" fill="#c1c0c0" d="M339.5 146.5c-6.075 2.24-12.408 3.907-19 5 5.936-2.736 12.27-4.402 19-5Z"/><path style="opacity:1" fill="#231f20" d="M408.5 161.5c.473 1.406 1.473 2.073 3 2 1.085 2.087 2.751 3.42 5 4 0 1.333.667 2 2 2a25.658 25.658 0 0 0 6 6c.919 2.589 2.586 4.589 5 6 .203 1.544.87 2.878 2 4-.363.683-.696 1.35-1 2-1.527-.073-2.527.594-3 2-1.527-.073-2.527.594-3 2 0 .667-.333 1-1 1-2.249.58-3.915 1.913-5 4-4.333 2.333-7.667 5.667-10 10-2.087 1.085-3.42 2.751-4 5-1.406.473-2.073 1.473-2 3-1.406.473-2.073 1.473-2 3-6.071 9.366-9.904 19.7-11.5 31a134.447 134.447 0 0 0 .5 26c-.09 2.652.576 4.985 2 7-.034 4.895 1.3 9.228 4 13-.098 2.053.569 3.72 2 5 1.174 1.014 1.84 2.347 2 4 .25 2.174 1.25 3.841 3 5-.073 1.527.594 2.527 2 3 .238 1.904 1.238 3.238 3 4 .58 2.249 1.913 3.915 4 5 .333 2.333 1.667 3.667 4 4 .667 0 1 .333 1 1 1.411 2.414 3.411 4.081 6 5 .762 1.762 2.096 2.762 4 3 1.302 2.322 3.302 3.655 6 4 2.966 2.488 6.299 4.488 10 6 .268 1.599-.066 2.932-1 4a478.083 478.083 0 0 1-17 38c.172.992-.162 1.658-1 2-1.406.473-2.073 1.473-2 3 .172.992-.162 1.658-1 2-1.826 1.647-3.16 3.647-4 6-1.826 1.647-3.16 3.647-4 6-1.406.473-2.073 1.473-2 3-1.762.762-2.762 2.096-3 4-1.762.762-2.762 2.096-3 4-1.762.762-2.762 2.096-3 4 0 .667-.333 1-1 1-2.087 1.085-3.42 2.751-4 5 0 .667-.333 1-1 1a57.51 57.51 0 0 0-9 9c0 .667-.333 1-1 1-2.249.58-3.915 1.913-5 4-2.831.579-5.164 1.912-7 4-8.31 3.406-16.977 4.739-26 4l-10-1c-1.714-1.238-3.714-1.905-6-2a107.358 107.358 0 0 1-19-7c-4.665-2.178-9.665-3.678-15-4.5-7-.667-14-.667-21 0a1526.734 1526.734 0 0 0-51 15.5 128.507 128.507 0 0 1-16-.5c-1.991-.374-3.658-1.207-5-2.5-1.014-1.174-2.347-1.84-4-2-.992.172-1.658-.162-2-1-.473-1.406-1.473-2.073-3-2-1.079-2.043-2.746-3.376-5-4-4.333-5-9-9.667-14-14 0-1.333-.667-2-2-2-.636-2.295-1.969-3.961-4-5-.054-2.132-1.054-3.465-3-4-.238-1.904-1.238-3.238-3-4 .073-1.527-.594-2.527-2-3-.238-1.904-1.238-3.238-3-4 .073-1.527-.594-2.527-2-3 .073-1.527-.594-2.527-2-3-.25-2.174-1.25-3.841-3-5 .073-1.527-.594-2.527-2-3-.838-.342-1.172-1.008-1-2-.25-2.174-1.25-3.841-3-5-1.174-1.014-1.84-2.347-2-4-.826-2.985-2.159-5.651-4-8-.838-.342-1.172-1.008-1-2-.207-2.741-1.207-5.074-3-7a399.314 399.314 0 0 0-11-30 740.719 740.719 0 0 1-6-30c-.279-5.605-1.279-10.938-3-16a840.27 840.27 0 0 1 .5-41c.191-2.208.691-4.208 1.5-6 1.937-5.082 3.27-10.415 4-16 .87-4.723 2.536-9.056 5-13 1.508-1.681 2.508-3.681 3-6 .16-1.653.826-2.986 2-4 1.406-.473 2.073-1.473 2-3a189.346 189.346 0 0 0 11-15 57.51 57.51 0 0 0 9-9 121.644 121.644 0 0 0 15-11c4.318-1.492 8.318-3.492 12-6 2.198.38 3.865-.287 5-2a256.928 256.928 0 0 1 22-4h12a331.672 331.672 0 0 1 16 2 888.286 888.286 0 0 0 36 13.5 34.953 34.953 0 0 0 9 1.5c2.705.184 5.038-.483 7-2h1c5.209-.511 9.876-2.178 14-5 1.714-1.238 3.714-1.905 6-2 2.198.38 3.865-.287 5-2 2.053.098 3.72-.569 5-2h1c6.592-1.093 12.925-2.76 19-5 24.578-2.105 47.578 2.895 69 15Z"/><path style="opacity:.024" fill="#c9c8c8" d="M236.5 149.5a505.85 505.85 0 0 1 38 12.5c4.617 1.826 9.284 1.993 14 .5-1.962 1.517-4.295 2.184-7 2a34.953 34.953 0 0 1-9-1.5 888.286 888.286 0 0 1-36-13.5Z"/><path style="opacity:.878" fill="#a9a8a8" d="M186.5 151.5c-1.135 1.713-2.802 2.38-5 2 1.28-1.431 2.947-2.098 5-2Z"/><path style="opacity:.224" fill="#e7e6e6" d="M319.5 151.5c-1.28 1.431-2.947 2.098-5 2 1.28-1.431 2.947-2.098 5-2Z"/><path style="opacity:.882" fill="#aba9aa" d="M314.5 153.5c-1.135 1.713-2.802 2.38-5 2 1.28-1.431 2.947-2.098 5-2Z"/><path style="opacity:.149" fill="#d7d6d6" d="M408.5 161.5c-21.422-12.105-44.422-17.105-69-15 19.546-3.186 38.546-.686 57 7.5 4.57 1.774 8.57 4.274 12 7.5Z"/><path style="opacity:.2" fill="#d9d9d9" d="M181.5 153.5c-3.682 2.508-7.682 4.508-12 6 3.414-3.04 7.414-5.04 12-6Z"/><path style="opacity:.847" fill="#bbb9ba" d="M303.5 157.5c-4.124 2.822-8.791 4.489-14 5 4.299-2.435 8.966-4.102 14-5Z"/><path style="opacity:.157" fill="#c8c8c8" d="M169.5 159.5a121.644 121.644 0 0 1-15 11c4.152-4.818 9.152-8.485 15-11Z"/><path style="opacity:.024" fill="#e3e2e3" d="M408.5 161.5c1.527-.073 2.527.594 3 2-1.527.073-2.527-.594-3-2Z"/><path style="opacity:.008" fill="#dbdada" d="M411.5 163.5c2.249.58 3.915 1.913 5 4-2.249-.58-3.915-1.913-5-4Z"/><path style="opacity:.871" fill="#9a9898" d="M416.5 167.5c1 .333 1.667 1 2 2-1.333 0-2-.667-2-2Z"/><path style="opacity:.039" fill="#e2e1e2" d="M418.5 169.5c3 1 5 3 6 6a25.658 25.658 0 0 1-6-6Z"/><path style="opacity:.518" fill="#cecece" d="M154.5 170.5a57.51 57.51 0 0 1-9 9c2-4 5-7 9-9Z"/><path style="opacity:.424" fill="#bcbbbc" d="M424.5 175.5c2.414 1.411 4.081 3.411 5 6-2.414-1.411-4.081-3.411-5-6Z"/><path style="opacity:.047" fill="#d5d4d4" d="M429.5 181.5c3.299 1.801 3.632 3.801 1 6 .304-.65.637-1.317 1-2-1.13-1.122-1.797-2.456-2-4Z"/><path style="opacity:.275" fill="#cbcaca" d="M145.5 179.5a189.346 189.346 0 0 1-11 15c2.448-5.897 6.115-10.897 11-15Z"/><path style="opacity:.031" fill="#e8e7e7" d="M430.5 187.5c-.473 1.406-1.473 2.073-3 2 .473-1.406 1.473-2.073 3-2Z"/><path style="opacity:.043" fill="#e2e2e2" d="M427.5 189.5c-.473 1.406-1.473 2.073-3 2 .473-1.406 1.473-2.073 3-2Z"/><path style="opacity:.012" fill="#eee" d="M423.5 192.5c-1.085 2.087-2.751 3.42-5 4 1.085-2.087 2.751-3.42 5-4Z"/><path style="opacity:.259" fill="#d6d6d6" d="M134.5 194.5c.073 1.527-.594 2.527-2 3-.073-1.527.594-2.527 2-3Z"/><path style="opacity:.2" fill="#dfdede" d="M130.5 201.5c-.492 2.319-1.492 4.319-3 6-.039-2.589.961-4.589 3-6Z"/><path style="opacity:.137" fill="#d5d4d4" d="M418.5 196.5c-3 3.667-6.333 7-10 10 2.333-4.333 5.667-7.667 10-10Z"/><path style="opacity:.09" fill="#dbdbdb" d="M408.5 206.5c-.58 2.249-1.913 3.915-4 5 .58-2.249 1.913-3.915 4-5Z"/><path style="opacity:.027" fill="#e0e0e0" d="M404.5 211.5c.073 1.527-.594 2.527-2 3-.073-1.527.594-2.527 2-3Z"/><path style="opacity:.184" fill="#dcdbdb" d="M402.5 214.5c.073 1.527-.594 2.527-2 3-.073-1.527.594-2.527 2-3Z"/><path style="opacity:.835" fill="#b6b5b5" d="M122.5 220.5c-.73 5.585-2.063 10.918-4 16 .417-5.67 1.751-11.003 4-16Z"/><path style="opacity:.22" fill="#c3c2c2" d="M400.5 217.5c-9.253 17.936-12.587 36.936-10 57h-1a134.447 134.447 0 0 1-.5-26c1.596-11.3 5.429-21.634 11.5-31Z"/><path style="opacity:.51" fill="#b0aeaf" d="M389.5 274.5h1a21.435 21.435 0 0 1 1 7c-1.424-2.015-2.09-4.348-2-7Z"/><path style="opacity:.718" fill="#bab9b9" d="M391.5 281.5c1.703 4.117 3.037 8.45 4 13-2.7-3.772-4.034-8.105-4-13Z"/><path style="opacity:.737" fill="#a5a3a3" d="M116.5 283.5c1.721 5.062 2.721 10.395 3 16h-1a66.034 66.034 0 0 1-2-16Z"/><path style="opacity:.153" fill="#e2e2e2" d="M395.5 294.5c1.431 1.28 2.098 2.947 2 5-1.431-1.28-2.098-2.947-2-5Z"/><path style="opacity:.2" fill="#d5d5d5" d="M399.5 303.5c1.75 1.159 2.75 2.826 3 5-1.75-1.159-2.75-2.826-3-5Z"/><path style="opacity:.329" fill="#d4d4d4" d="M402.5 308.5c1.406.473 2.073 1.473 2 3-1.406-.473-2.073-1.473-2-3Z"/><path style="opacity:.439" fill="#cfcece" d="M404.5 311.5c1.762.762 2.762 2.096 3 4-1.762-.762-2.762-2.096-3-4Z"/><path style="opacity:.749" fill="#c4c3c3" d="M407.5 315.5c2.087 1.085 3.42 2.751 4 5-2.087-1.085-3.42-2.751-4-5Z"/><path style="opacity:.322" fill="#c6c5c5" d="M118.5 299.5h1a740.719 740.719 0 0 0 6 30c-3.565-9.599-5.898-19.599-7-30Z"/><path style="opacity:.886" fill="#929090" d="M411.5 320.5c1.667 1 3 2.333 4 4-2.333-.333-3.667-1.667-4-4Z"/><path style="opacity:.027" fill="#d8d8d8" d="M416.5 325.5c2.589.919 4.589 2.586 6 5-2.589-.919-4.589-2.586-6-5Z"/><path style="opacity:.016" fill="#e2e2e2" d="M422.5 330.5c1.904.238 3.238 1.238 4 3-1.904-.238-3.238-1.238-4-3Z"/><path style="opacity:.302" fill="#d7d6d6" d="M426.5 333.5c2.353.84 4.353 2.174 6 4-2.698-.345-4.698-1.678-6-4Z"/><path style="opacity:.247" fill="#d4d4d4" d="M432.5 337.5c4.07 1.024 7.404 3.024 10 6-3.701-1.512-7.034-3.512-10-6Z"/><path style="opacity:.322" fill="#c9c8c9" d="M125.5 329.5a399.314 399.314 0 0 1 11 30c-4.837-9.504-8.503-19.504-11-30Z"/><path style="opacity:.392" fill="#cac9c9" d="M441.5 347.5c-3.52 13.701-9.187 26.368-17 38a478.083 478.083 0 0 0 17-38Z"/><path style="opacity:.322" fill="#c8c7c7" d="M136.5 359.5c1.793 1.926 2.793 4.259 3 7-1.793-1.926-2.793-4.259-3-7Z"/><path style="opacity:.133" fill="#d9d8d9" d="M140.5 368.5c1.841 2.349 3.174 5.015 4 8-2.373-2.079-3.706-4.746-4-8Z"/><path style="opacity:.325" fill="#cccbcc" d="M146.5 380.5c1.75 1.159 2.75 2.826 3 5-1.75-1.159-2.75-2.826-3-5Z"/><path style="opacity:.239" fill="#d3d3d3" d="M150.5 387.5c1.406.473 2.073 1.473 2 3-1.406-.473-2.073-1.473-2-3Z"/><path style="opacity:.255" fill="#d4d4d4" d="M423.5 387.5c.073 1.527-.594 2.527-2 3-.073-1.527.594-2.527 2-3Z"/><path style="opacity:.318" fill="#cecece" d="M152.5 390.5c1.75 1.159 2.75 2.826 3 5-1.75-1.159-2.75-2.826-3-5Z"/><path style="opacity:.2" fill="#dadada" d="M420.5 392.5c-.345 2.698-1.678 4.698-4 6 .84-2.353 2.174-4.353 4-6Z"/><path style="opacity:.016" fill="#e1e1e1" d="M155.5 395.5c1.406.473 2.073 1.473 2 3-1.406-.473-2.073-1.473-2-3Z"/><path style="opacity:.027" fill="#e5e5e5" d="M157.5 398.5c1.406.473 2.073 1.473 2 3-1.406-.473-2.073-1.473-2-3Z"/><path style="opacity:.004" fill="#dedede" d="M416.5 398.5c-.345 2.698-1.678 4.698-4 6 .84-2.353 2.174-4.353 4-6Z"/><path style="opacity:.004" fill="#dddcdc" d="M159.5 401.5c1.762.762 2.762 2.096 3 4-1.762-.762-2.762-2.096-3-4Z"/><path style="opacity:.035" fill="#dfdede" d="M412.5 404.5c.073 1.527-.594 2.527-2 3-.073-1.527.594-2.527 2-3Z"/><path style="opacity:.035" fill="#e0dfe0" d="M162.5 405.5c1.406.473 2.073 1.473 2 3-1.406-.473-2.073-1.473-2-3Z"/><path style="opacity:.008" fill="#e1e0e0" d="M410.5 407.5c-.238 1.904-1.238 3.238-3 4 .238-1.904 1.238-3.238 3-4Z"/><path style="opacity:.008" fill="#dfdfdf" d="M164.5 408.5c1.762.762 2.762 2.096 3 4-1.762-.762-2.762-2.096-3-4Z"/><path style="opacity:.047" fill="#dcdbdb" d="M407.5 411.5c-.238 1.904-1.238 3.238-3 4 .238-1.904 1.238-3.238 3-4Z"/><path style="opacity:.039" fill="#c0bfc0" d="M167.5 412.5c1.946.535 2.946 1.868 3 4-1.474-.936-2.474-2.27-3-4Z"/><path style="opacity:.012" fill="#e0dfdf" d="M404.5 415.5c-.238 1.904-1.238 3.238-3 4 .238-1.904 1.238-3.238 3-4Z"/><path style="opacity:.012" fill="#c7c6c6" d="M170.5 416.5c2.031 1.039 3.364 2.705 4 5-2.043-1.079-3.376-2.746-4-5Z"/><path style="opacity:.902" fill="#9b9999" d="M174.5 421.5c1.333 0 2 .667 2 2-1-.333-1.667-1-2-2Z"/><path style="opacity:.09" fill="#d0cfd0" d="M400.5 420.5c-.58 2.249-1.913 3.915-4 5 .58-2.249 1.913-3.915 4-5Z"/><path style="opacity:.051" fill="#cbcaca" d="M176.5 423.5c5 4.333 9.667 9 14 14a46.728 46.728 0 0 1-14-14Z"/><path style="opacity:.02" fill="#e9e9e9" d="M395.5 426.5c-2 4-5 7-9 9a57.51 57.51 0 0 1 9-9Z"/><path style="opacity:.004" fill="#dfdede" d="M190.5 437.5c2.254.624 3.921 1.957 5 4-2.295-.636-3.961-1.969-5-4Z"/><path style="opacity:.004" fill="#e9e8e8" d="M385.5 436.5c-1.085 2.087-2.751 3.42-5 4 1.085-2.087 2.751-3.42 5-4Z"/><path style="opacity:.333" fill="#d7d6d7" d="M195.5 441.5c1.527-.073 2.527.594 3 2-1.527.073-2.527-.594-3-2Z"/><path style="opacity:.118" fill="#dedede" d="M380.5 440.5c-1.84 2.169-4.174 3.502-7 4 1.836-2.088 4.169-3.421 7-4Z"/><path style="opacity:.059" fill="#cfcece" d="M312.5 438.5c-17.039-5.461-34.039-5.295-51 .5a348.816 348.816 0 0 1-28 10 32.462 32.462 0 0 1-8 .5 1526.734 1526.734 0 0 1 51-15.5c7-.667 14-.667 21 0 5.335.822 10.335 2.322 15 4.5Z"/><path style="opacity:.125" fill="#dbdada" d="M200.5 444.5c1.653.16 2.986.826 4 2-1.88.271-3.213-.396-4-2Z"/><path style="opacity:.01" fill="#ececec" d="M331.5 445.5c2.286.095 4.286.762 6 2-2.398.241-4.398-.426-6-2Z"/><path style="opacity:.137" fill="#bab9ba" d="M373.5 444.5c-2.937 2.156-6.271 3.656-10 4.5-5.323.499-10.656.666-16 .5v-1c9.023.739 17.69-.594 26-4Z"/><path style="opacity:.02" fill="#e5e4e4" d="m337.5 447.5 10 1v1c-3.622.178-6.956-.489-10-2Z"/></svg>