<svg xmlns="http://www.w3.org/2000/svg" width="480" height="727" style="shape-rendering:geometricPrecision;text-rendering:geometricPrecision;image-rendering:optimizeQuality;fill-rule:evenodd;clip-rule:evenodd"><path style="opacity:1" fill="#89bb37" d="M86.5-.5h5c.771 2.273 2.104 2.606 4 1 1.213.247 1.88.914 2 2-1.288 1.535-1.288 3.201 0 5 .683-.363 1.35-.696 2-1 1.726 2.32 2.393 4.987 2 8a4.932 4.932 0 0 0-3 .5c1.537 1.11 2.203 2.61 2 4.5-.838.342-1.172 1.008-1 2-.667 0-1 .333-1 1a8.434 8.434 0 0 0-4 .5c-3.183 3.502-5.683 3.002-7.5-1.5-1.333 1.333-2.667 1.333-4 0a94.28 94.28 0 0 0-3.5-8.5c.59-2.257 1.923-3.924 4-5-1.076-1.726-1.243-3.56-.5-5.5 1.729-.474 2.895-1.474 3.5-3Z"/><path style="opacity:.999" fill="#4e8b2f" d="M116.5 12.5h-3a81.887 81.887 0 0 0 3.5 17 24.361 24.361 0 0 0 1.5-10 68.818 68.818 0 0 0 3-6.5c2-.667 4-.667 6 0 .556.383.889.883 1 1.5.668 8.997-1.998 16.997-8 24 2.59-.335 4.923-1.835 7-4.5 1.444-.78 2.777-.614 4 .5a32.05 32.05 0 0 0-3.5 4 3.646 3.646 0 0 0-1.5-1c-1.405 1.494-3.071 2.494-5 3-.543.06-.876.393-1 1 1.189.929 2.522 1.262 4 1h1l7 2a18.437 18.437 0 0 0-6 .5c2.063 2.541 3.397 5.375 4 8.5-2.222.322-4.056-.345-5.5-2-1.942-4.44-4.442-7.773-7.5-10 4.522 6.922 5.188 14.255 2 22a7.468 7.468 0 0 1-2-3c2.404-7.599.071-9.932-7-7l-4 2c-.963-.47-.963-1.136 0-2 4.227-1.274 7.894-3.274 11-6 0-.667-.333-1-1-1a20.691 20.691 0 0 0-1-5c.438.065.772-.101 1-.5-.744-1.039-1.744-1.539-3-1.5h-1c-.709-.904-1.709-1.237-3-1-1.797-1.23-3.797-1.896-6-2h-2a22.584 22.584 0 0 1-4-8c.667 0 1-.333 1-1 1.223-3.55 3.223-6.55 6-9 .06.543.393.876 1 1 1.322-4.316 3.989-7.316 8-9 1.538-.047 2.538.62 3 2Z"/><path style="opacity:.453" fill="#b8d773" d="M50.5 12.5c.806 1.497 1.472 3.164 2 5-.124.607-.457.94-1 1-.961-1.765-1.295-3.765-1-6Z"/><path style="opacity:.988" fill="#8bbd3a" d="M50.5 12.5c-.295 2.235.039 4.235 1 6a39.175 39.175 0 0 1-2 4.5c-.95.617-1.782.45-2.5-.5-1.828 2.307-3.494 1.974-5-1-.617-.95-.45-1.782.5-2.5-.928-.388-1.595-1.055-2-2 1.419-6.215 4.752-7.715 10-4.5Z"/><path style="opacity:1" fill="#61972b" d="M116.5 12.5c1.663 1.938 2.329 4.272 2 7a24.361 24.361 0 0 1-1.5 10 81.887 81.887 0 0 1-3.5-17h3Z"/><path style="opacity:1" fill="#679831" d="M128.5 14.5c3.383 2.789 5.05 6.455 5 11 2.792-.048 4.625 1.285 5.5 4 2.449 11.049-2.051 15.382-13.5 13h-1l-3-2c1.929-.506 3.595-1.506 5-3 .586.21 1.086.543 1.5 1a32.05 32.05 0 0 1 3.5-4c-1.223-1.114-2.556-1.28-4-.5-2.077 2.665-4.41 4.165-7 4.5 6.002-7.003 8.668-15.003 8-24Z"/><path style="opacity:.496" fill="#94b842" d="M206.5 30.5h-2c-5.831-7.183-10.164-6.183-13 3a3.646 3.646 0 0 1-1.5-1c.646-6.966 4.479-9.8 11.5-8.5 2.265 1.758 3.932 3.925 5 6.5Z"/><path style="opacity:.52" fill="#97bc46" d="M97.5 2.5c7.858 2.686 10.192 8.02 7 16-2.777 2.45-4.777 5.45-6 9-.667 0-1 .333-1 1a48.512 48.512 0 0 1-11 7.5 491.334 491.334 0 0 0-21 6c-1.473.71-2.14 1.876-2 3.5-.838.342-1.172 1.008-1 2-1.579-1.73-3.245-3.564-5-5.5 1.049-.492 2.049-.326 3 .5a12.796 12.796 0 0 0 2-4.5c-1.546-1.473-2.546-3.306-3-5.5.02-1.226.353-2.226 1-3 1.268 3.435 3.268 6.435 6 9 9.988-1.828 19.321-5.328 28-10.5 1.939-1.432 3.272-3.265 4-5.5.667 0 1-.333 1-1 .838-.342 1.172-1.008 1-2 2.528-3.792 3.028-7.792 1.5-12-.671-.752-1.504-1.086-2.5-1-.65.304-1.317.637-2 1-1.288-1.799-1.288-3.465 0-5Z"/><path style="opacity:1" fill="#659a34" d="M104.5 21.5c6.323.873 9.489 4.873 9.5 12a94.131 94.131 0 0 1-7-11c-.671-.752-1.504-1.086-2.5-1Z"/><path style="opacity:1" fill="#4d8a2f" d="M160.5 24.5c-1.963 2.467-3.129 5.467-3.5 9a31.867 31.867 0 0 0-4.5 5c-.607-.124-.94-.457-1-1 1.333-.333 1.333-.667 0-1a34.987 34.987 0 0 1-8-6c1.632-2.688 3.632-5.188 6-7.5 2.717-1.033 4.551-.2 5.5 2.5 1.339-3.599 3.172-3.932 5.5-1Z"/><path style="opacity:.992" fill="#8dbd3d" d="M279.5 22.5h6c.14 1.624-.527 2.79-2 3.5 1.266.31 2.433.81 3.5 1.5-.062 2.587.271 5.254 1 8a20.509 20.509 0 0 0-2.5 4.5 66.95 66.95 0 0 0-5.5 1.5 1911.307 1911.307 0 0 0-4-3c-.684-1.284-.517-2.45.5-3.5a6.544 6.544 0 0 1-3-3 43.718 43.718 0 0 0 3-5.5c.774-1.211 1.607-1.211 2.5 0a8.43 8.43 0 0 0 .5-4Z"/><path style="opacity:.871" fill="#86b936" d="M60.5 29.5c-.647.774-.98 1.774-1 3 .454 2.194 1.454 4.027 3 5.5a12.796 12.796 0 0 1-2 4.5c-.951-.826-1.951-.992-3-.5 1.755 1.936 3.421 3.77 5 5.5a111.25 111.25 0 0 1-5 2c-.363.684-.696 1.35-1 2-3.36.71-5.193-.624-5.5-4-.837 1.507-2.004 2.007-3.5 1.5a158.415 158.415 0 0 1-4-7.5c-.857-3.061.477-4.895 4-5.5-2.667-2.333-2.667-4.667 0-7a20.026 20.026 0 0 1 5-2.5c1.925.09 3.092 1.09 3.5 3 1.521-2.546 3.021-2.546 4.5 0Z"/><path style="opacity:.247" fill="#4d8b2f" d="M51.5 38.5c-1.837-.14-2.17-.806-1-2 .797.457 1.13 1.124 1 2Z"/><path style="opacity:1" fill="#5a912f" d="M160.5 24.5a34.246 34.246 0 0 0 5.5 8c.579 1.428.412 2.762-.5 4a54.223 54.223 0 0 0-7.5 5c-.496 1.535-.33 3.035.5 4.5a11.032 11.032 0 0 0-4 5.5c-1.673-.843-2.84-2.176-3.5-4-2 1.333-4 1.333-6 0a17.35 17.35 0 0 0-3.5-7c.716-3.184 2.716-4.684 6-4.5a12.412 12.412 0 0 1-4-2.5c-1.153-1.187-1.153-2.187 0-3a34.987 34.987 0 0 0 8 6c-2.667.333-2.667.667 0 1 .06.543.393.876 1 1a31.867 31.867 0 0 1 4.5-5c.371-3.533 1.537-6.533 3.5-9Z"/><path style="opacity:1" fill="#99c44a" d="M238.5 34.5c1.864-1.293 3.864-1.293 6 0a4.451 4.451 0 0 1-2 1.5c.916.374 1.75.874 2.5 1.5 2.246 4.803 1.746 9.303-1.5 13.5-1.68-.771-3.347-.605-5 .5a42.504 42.504 0 0 1 1.5-5l2 2a8.193 8.193 0 0 1 2.5-4 8.193 8.193 0 0 1-2.5-4l-1 1c.03-2.861-.803-5.195-2.5-7Z"/><path style="opacity:.159" fill="#81b730" d="M238.5 34.5c1.697 1.805 2.53 4.139 2.5 7l1-1a8.193 8.193 0 0 0 2.5 4 8.193 8.193 0 0 0-2.5 4l-2-2a42.504 42.504 0 0 0-1.5 5c-3.286-.742-4.62-2.575-4-5.5-2.468-2.716-2.468-5.55 0-8.5 1.684-.65 3.017-1.65 4-3Z"/><path style="opacity:.769" fill="#99c64b" d="M213.5 32.5a100.328 100.328 0 0 0 4.5 7c.495 1.973.662 3.973.5 6a4.932 4.932 0 0 0-3 .5c2.287 2.048 2.454 4.215.5 6.5a20.303 20.303 0 0 0-6.5 3 2.427 2.427 0 0 1-2-.5c1.52-2.596 2.353-5.43 2.5-8.5l3 4 .5-1.5a31.648 31.648 0 0 0-4-5.5 10.504 10.504 0 0 1 3.5-5c.495-1.973.662-3.973.5-6Z"/><path style="opacity:1" fill="#93c243" d="M103.5 36.5c2.203.104 4.203.77 6 2a2.429 2.429 0 0 0 .5 2c.671-.752 1.504-1.086 2.5-1h1c.333 1 1 1.667 2 2a20.691 20.691 0 0 1 1 5c.667 0 1 .333 1 1-3.106 2.726-6.773 4.726-11 6-.442-.731-.609-1.731-.5-3-.654 1.196-1.154 1.196-1.5 0 1.428-4.807 1.095-9.474-1-14Z"/><path style="opacity:1" fill="#6b9a33" d="M63.5 45.5c2.586.987 3.92 2.987 4 6-.453.958-1.12 1.792-2 2.5a20.216 20.216 0 0 0-6 1.5c1.545.952 3.212 1.285 5 1 1.33 2.381 1.164 4.714-.5 7-3.299 1.394-6.132 3.394-8.5 6 .342-4.618-.158-9.284-1.5-14a17.834 17.834 0 0 1 4.5 5.5c1.135.75 2.135.583 3-.5a11.621 11.621 0 0 1-3-5l3-5-1.5-1c-1.077.93-2.244 1.596-3.5 2 .304-.65.637-1.316 1-2a111.25 111.25 0 0 0 5-2c-.172-.992.162-1.658 1-2Z"/><path style="opacity:1" fill="#85b935" d="M165.5 36.5c.636 2.826 2.136 3.492 4.5 2 1.261.26 2.261.926 3 2a73.86 73.86 0 0 0 3.5 9c-1.808-.009-3.475.491-5 1.5.343 2.65 1.01 5.484 2 8.5-2.785-.584-4.452.416-5 3-2.292 1.346-4.292 1.012-6-1-1.105-1.723-2.772-2.723-5-3a45.773 45.773 0 0 0-3-7 11.032 11.032 0 0 1 4-5.5c-.83-1.465-.996-2.965-.5-4.5a54.223 54.223 0 0 1 7.5-5Z"/><path style="opacity:1" fill="#86b934" d="M204.5 30.5h2c1.235.221 2.235.888 3 2 1.495-1.205 2.828-1.205 4 0a18.452 18.452 0 0 1-.5 6 10.504 10.504 0 0 0-3.5 5 31.648 31.648 0 0 1 4 5.5l-.5 1.5-3-4c-.147 3.07-.98 5.904-2.5 8.5a2.427 2.427 0 0 0 2 .5c-2.805 1.345-4.639.345-5.5-3-2.044 1.272-3.878.939-5.5-1a675.72 675.72 0 0 1-11 8 60.93 60.93 0 0 1-.5 11c-2.543-2.7-3.21-2.7-2 0 1.046 4.047.213 4.714-2.5 2-1.915 1.571-2.915 3.571-3 6-2.619-1.145-4.619-2.979-6-5.5 2.514-2.067 2.348-3.567-.5-4.5-.833-2.671-.333-5.004 1.5-7a5.727 5.727 0 0 0 1-3c8.352-1.162 16.019-4.662 23-10.5-3.125-4.154-2.125-6.821 3-8a13.923 13.923 0 0 1-3-4c1.529-2.43 3.529-4.264 6-5.5Z"/><path style="opacity:1" fill="#83b833" d="M98.5 41.5c1.509 4.783 2.509 9.45 3 14a363.698 363.698 0 0 0-6 3c-6.554.783-9.22-1.884-8-8a5.728 5.728 0 0 0 1-3c1.502-2.268 2.835-4.768 4-7.5 2.374-.743 4.374-.243 6 1.5Z"/><path style="opacity:.49" fill="#94b841" d="M137.5 52.5a79.058 79.058 0 0 0 20 6c2.228.277 3.895 1.277 5 3a80.756 80.756 0 0 1-26-6c-.237-1.291.096-2.291 1-3Z"/><path style="opacity:1" fill="#5f9931" d="M98.5 41.5a112.266 112.266 0 0 1 6.5 17c.789 2.212.622 4.212-.5 6 0-.667-.333-1-1-1 .247-2.358-.419-4.358-2-6v-2c-.491-4.55-1.491-9.217-3-14Z"/><path style="opacity:1" fill="#579030" d="M43.5 41.5a158.415 158.415 0 0 0 4 7.5c1.496.507 2.663.007 3.5-1.5.307 3.376 2.14 4.71 5.5 4 1.256-.404 2.423-1.07 3.5-2l1.5 1-3 5a11.621 11.621 0 0 0 3 5c-.865 1.083-1.865 1.25-3 .5a17.834 17.834 0 0 0-4.5-5.5c1.342 4.716 1.842 9.382 1.5 14-4.063 2.061-6.23.728-6.5-4-1.87 3.382-4.036 3.716-6.5 1a12.802 12.802 0 0 0-3-6c.825-.886 1.825-1.219 3-1v-7c1.333-.333 1.333-.667 0-1-2.475-1.187-3.475-3.187-3-6 .972-1.64 2.306-2.973 4-4Z"/><path style="opacity:1" fill="#a1cb53" d="M117.5 60.5c-3.052 1.277-4.385 3.61-4 7a5.727 5.727 0 0 1-1 3c-1.737-2.508-2.57-5.508-2.5-9-.5-1.167-1.333-2-2.5-2.5 2.406-.779 4.073.054 5 2.5 1.381-.5 2.047-1.5 2-3a949.125 949.125 0 0 0-4-5c7.071-2.932 9.404-.599 7 7Z"/><path style="opacity:1" fill="#699832" d="M132.5 44.5c3.658 1.297 5.324 3.964 5 8-.904.709-1.237 1.709-1 3-1.948 4.253-5.281 5.92-10 5-1.204 8.433-5.537 10.766-13 7-.385-3.39.948-5.723 4-7a7.468 7.468 0 0 0 2 3c3.188-7.745 2.522-15.078-2-22 3.058 2.227 5.558 5.56 7.5 10 1.444 1.655 3.278 2.322 5.5 2-.603-3.125-1.937-5.959-4-8.5a18.437 18.437 0 0 1 6-.5Z"/><path style="opacity:.012" fill="#90bd40" d="M88.5 47.5a5.728 5.728 0 0 1-1 3 51.639 51.639 0 0 1-7 1c2.035 6.26.035 10.593-6 13a7.253 7.253 0 0 1-2.5-2c-.233-2.28-1.066-4.28-2.5-6a3.646 3.646 0 0 1 1-1.5c-2.275-.405-4.275.095-6 1.5-1.788.285-3.455-.048-5-1a20.216 20.216 0 0 1 6-1.5c.88-.708 1.547-1.542 2-2.5a291.524 291.524 0 0 1 21-4Z"/><path style="opacity:.44" fill="#95bb44" d="M201.5 59.5c23.12-1.372 30.953 8.962 23.5 31-2.47 3.307-5.637 5.64-9.5 7 3.521.65 4.521 2.483 3 5.5 2.124 2.408 1.957 4.908-.5 7.5-1.079 1.894-2.413 2.227-4 1-.278.916-.778 1.582-1.5 2a8.43 8.43 0 0 0-.5-4c-.654 1.196-1.154 1.196-1.5 0 1.598-2.473 3.098-2.473 4.5 0 .44-4.287.274-8.621-.5-13h-3c-7.679-3.87-9.679-9.703-6-17.5 1.646-1.401 3.313-1.568 5-.5-5.624 3.289-6.458 7.622-2.5 13 7.894 4.98 13.394 2.98 16.5-6 .838-.342 1.172-1.008 1-2-.596-1.898-.596-3.565 0-5v-1c-1.367-11.842-8.033-16.676-20-14.5-.286 1.388.048 2.888 1 4.5-1.567-1.18-2.401-2.847-2.5-5l-2 2a12.93 12.93 0 0 1-.5-5Z"/><path style="opacity:1" fill="#84b931" d="M101.5 57.5c1.581 1.642 2.247 3.642 2 6 .046 3.052-.954 5.718-3 8 .457.797 1.124 1.13 2 1-.814 1.773-2.148 2.273-4 1.5a22.498 22.498 0 0 0-7.5-5.5c-1.654-2.775-1.32-5.442 1-8a19.606 19.606 0 0 0 3.5-2c2.12.175 4.12-.159 6-1Z"/><path style="opacity:1" fill="#a9ce5d" d="M42.5 55.5v4c-1.175-.219-2.175.114-3 1a12.802 12.802 0 0 1 3 6l-2 2a26.388 26.388 0 0 0-4-8l2-1a3.646 3.646 0 0 0-1-1.5 19.16 19.16 0 0 1 5-2.5Z"/><path style="opacity:1" fill="#86b933" d="M101.5 36.5h2c2.095 4.526 2.428 9.193 1 14 .346 1.196.846 1.196 1.5 0-.109 1.269.058 2.269.5 3-.963.864-.963 1.53 0 2l4-2a949.125 949.125 0 0 1 4 5c.047 1.5-.619 2.5-2 3-.927-2.446-2.594-3.279-5-2.5 1.167.5 2 1.333 2.5 2.5-.07 3.492.763 6.492 2.5 9-3.412 2.87-6.079 2.203-8-2v-4c1.122-1.788 1.289-3.788.5-6a112.266 112.266 0 0 0-6.5-17c-.24-2.534.76-4.2 3-5Z"/><path style="opacity:.008" fill="#9dc14f" d="M176.5 49.5v3a4.932 4.932 0 0 0-3 .5c1.583 1.897 2.25 3.73 2 5.5a5.727 5.727 0 0 1-1 3 19.24 19.24 0 0 0-6 1c.548-2.584 2.215-3.584 5-3-.99-3.016-1.657-5.85-2-8.5 1.525-1.009 3.192-1.509 5-1.5Z"/><path style="opacity:.055" fill="#799f3c" d="M10.5 63.5a13.117 13.117 0 0 1 7 1c-.848 1.491-2.181 2.158-4 2-3.008.341-4.008-.659-3-3Z"/><path style="opacity:1" fill="#80b62f" d="M30.5 40.5c-.876-.13-1.543.203-2 1a25.029 25.029 0 0 1 2.5 10c1.319-1.75 1.819-3.75 1.5-6h4c-.164 3.174-1.164 6.007-3 8.5 1.438.219 2.771.719 4 1.5a25.86 25.86 0 0 0-5 3c.21.586.543 1.086 1 1.5-1.78 2.487-2.947 5.32-3.5 8.5a25.792 25.792 0 0 0-2-8c-1.487 3.359-3.654 6.025-6.5 8h-2a48.095 48.095 0 0 1-2.5-13c2.135-1.779 4.635-2.445 7.5-2-6.729-4.78-6.395-9.114 1-13 1.799-1.288 3.465-1.288 5 0Zm-6 13a8.434 8.434 0 0 1 4 .5c.95.718 1.117 1.55.5 2.5-1.409-1.281-2.909-2.281-4.5-3Z"/><path style="opacity:1" fill="#89b938" d="M201.5 59.5c-.16 1.7.006 3.366.5 5l2-2c.099 2.153.933 3.82 2.5 5-.371 3.869-2.537 5.869-6.5 6-3.37-2.424-5.037-5.757-5-10-1.828 1.252-3.661 1.252-5.5 0v-2c4.2.31 8.2-.357 12-2Z"/><path style="opacity:1" fill="#8abc3a" d="M154.5 62.5c2.436-.183 4.603.484 6.5 2 .077 2.153.077 4.486 0 7-2.804 1.844-5.97 2.511-9.5 2 .028-2.082-.639-3.916-2-5.5 1.537-1.11 2.203-2.61 2-4.5 1.291.237 2.291-.096 3-1Z"/><path style="opacity:1" fill="#91c13f" d="M30.5 40.5c.79 1.108 1.29 2.442 1.5 4 .95-2.7 2.782-3.533 5.5-2.5 1.323.816 1.99 1.983 2 3.5-.475 2.813.525 4.813 3 6v4a19.16 19.16 0 0 0-5 2.5c.457.414.79.914 1 1.5l-2 1a26.388 26.388 0 0 1 4 8v1c-1.431-1.403-2.598-3.07-3.5-5a17.64 17.64 0 0 0 .5 6c-2.216.703-4.049 2.036-5.5 4 .665 2.363.498 4.696-.5 7a8.434 8.434 0 0 1-4-.5c3.155-3.877 2.489-6.71-2-8.5.912-1.238 1.08-2.572.5-4-.417 1.256-1.25 1.923-2.5 2-1-.333-1.667-1-2-2 2.846-1.975 5.013-4.641 6.5-8a25.792 25.792 0 0 1 2 8c.553-3.18 1.72-6.013 3.5-8.5a3.646 3.646 0 0 1-1-1.5 25.86 25.86 0 0 1 5-3 10.253 10.253 0 0 0-4-1.5c1.836-2.493 2.836-5.326 3-8.5h-4c.319 2.25-.181 4.25-1.5 6a25.029 25.029 0 0 0-2.5-10c.457-.797 1.124-1.13 2-1Z"/><path style="opacity:1" fill="#9ec850" d="M187.5 59.5c1 .333 1.667 1 2 2v2c-.111.617-.444 1.117-1 1.5 1.078.674 1.745 1.674 2 3-1.154 2.786-2.321 5.62-3.5 8.5-1.458 1.247-2.958 1.247-4.5 0-1.018.692-2.018 1.36-3 2 .085-2.429 1.085-4.429 3-6 2.713 2.714 3.546 2.047 2.5-2-1.21-2.7-.543-2.7 2 0a60.93 60.93 0 0 0 .5-11Z"/><path style="opacity:.553" fill="#93b841" d="M40.5 69.5a163.92 163.92 0 0 1 5 27c-.617.11-1.117.444-1.5 1-.19-2.208-.69-4.208-1.5-6a5.728 5.728 0 0 0-1-3 144.446 144.446 0 0 0-4-18 17.64 17.64 0 0 1-.5-6c.902 1.93 2.069 3.597 3.5 5Z"/><path style="opacity:.945" fill="#aad05e" d="M103.5 63.5c.667 0 1 .333 1 1v4c.271 1.88-.396 3.213-2 4-.876.13-1.543-.203-2-1 2.046-2.282 3.046-4.948 3-8Z"/><path style="opacity:1" fill="#5a9230" d="M19.5 68.5h2c.333 1 1 1.667 2 2 .333 1 1 1.667 2 2 4.489 1.79 5.155 4.623 2 8.5a8.434 8.434 0 0 0 4 .5l1 4c-1.929 1.56-3.262 3.56-4 6h-1c-2.374-1.186-4.708-1.186-7 0-2.082-.124-3.582-1.124-4.5-3a12.8 12.8 0 0 1-3 6c.14-2.351.64-4.684 1.5-7 .678-2.901 2.012-3.401 4-1.5a16.25 16.25 0 0 0 8 0c-2.503-.13-4.503-1.13-6-3-.849-2.049-.849-4.382 0-7L19 74.5c.07 3.492-.763 6.492-2.5 9 .295-2.235-.039-4.235-1-6-.841-4.075.492-7.075 4-9Z"/><path style="opacity:.843" fill="#568f30" d="M225.5 77.5v1c-.596 1.435-.596 3.102 0 5-.838.342-1.172 1.008-1 2-2.222.322-4.056-.345-5.5-2a24.935 24.935 0 0 1-.5-7 6.846 6.846 0 0 0 4-1c1.018.692 2.018 1.36 3 2Z"/><path style="opacity:.551" fill="#4f8b2f" d="M15.5 77.5c-.295 2.235.039 4.235 1 6 1.737-2.508 2.57-5.508 2.5-9l1.5 1.5c-.849 2.618-.849 4.951 0 7 1.497 1.87 3.497 2.87 6 3a16.25 16.25 0 0 1-8 0c-1.988-1.901-3.322-1.401-4 1.5-4.216 2.693-8.55 4.693-13 6l-2-2v-3c3.723-1.656 3.723-2.989 0-4v-6a18.49 18.49 0 0 0 3.5-2c2.277-6.585 5.943-7.585 11-3 .21 1.558.71 2.891 1.5 4Z"/><path style="opacity:.651" fill="#85b934" d="M58.5 90.5a4.932 4.932 0 0 0-3 .5c1.196.654 1.196 1.154 0 1.5-3.406-.691-6.406-2.025-9-4-.543-.06-.876-.393-1-1 .95-4.117 3.45-6.783 7.5-8 1.653.32 2.653 1.32 3 3 .414-.457.914-.79 1.5-1a21.12 21.12 0 0 1 1 9Z"/><path style="opacity:.992" fill="#9fc952" d="M46.5 88.5c2.594 1.975 5.594 3.309 9 4 1.196-.346 1.196-.846 0-1.5a4.932 4.932 0 0 1 3-.5c.543.06.876.393 1 1l-5 4a7.253 7.253 0 0 1-2.5-2c-1.183 1.231-2.35 1.231-3.5 0a16.066 16.066 0 0 1-2-5Z"/><path style="opacity:1" fill="#84b832" d="M32.5 85.5a27.713 27.713 0 0 0 9 3c.61.891.943 1.891 1 3a496.604 496.604 0 0 0-8 8 27.586 27.586 0 0 0 5 1.5c-3.322.182-5.656 1.016-7 2.5 0-.667-.333-1-1-1-2.073 2.227-4.573 3.894-7.5 5l-2.5-.5c2.107-1.264 3.107-3.097 3-5.5-2.082.028-3.916-.639-5.5-2a2.427 2.427 0 0 0-.5 2l-2-1a31.558 31.558 0 0 1 4-9c2.292-1.186 4.626-1.186 7 0 .333 1.333.667 1.333 1 0 .738-2.44 2.071-4.44 4-6Z"/><path style="opacity:1" fill="#66972f" d="M14.5 87.5c-.86 2.316-1.36 4.649-1.5 7a12.8 12.8 0 0 0 3-6c.918 1.876 2.418 2.876 4.5 3a31.558 31.558 0 0 0-4 9c-1.955.823-3.955.99-6 .5-2.502-3.163-5.502-5.663-9-7.5 4.45-1.307 8.784-3.307 13-6Z"/><path style="opacity:1" fill="#82b730" d="M211.5 96.5h3c.774 4.379.94 8.713.5 13-1.402-2.473-2.902-2.473-4.5 0 .346 1.196.846 1.196 1.5 0a8.43 8.43 0 0 1 .5 4c-4.066-.645-5.399-2.812-4-6.5-1.41-.368-2.41-1.201-3-2.5a23.663 23.663 0 0 0 2.5-6 19.62 19.62 0 0 0 3.5-2Z"/><path style="opacity:1" fill="#90c03e" d="M42.5 91.5c.81 1.792 1.31 3.792 1.5 6 .383-.556.883-.89 1.5-1a27.605 27.605 0 0 1 2 4.5c-1.639 3.302-2.306 6.802-2 10.5l-3 2c0-.667-.333-1-1-1-2.368-1.283-4.535-2.95-6.5-5l-1 2c-1.011-.837-2.178-1.17-3.5-1 .19 2.459-.81 4.126-3 5-1.29-.558-2.123-1.558-2.5-3-3.584.779-6.084-.721-7.5-4.5a6.544 6.544 0 0 1 3-3c-.916-.278-1.582-.778-2-1.5a2.427 2.427 0 0 1 .5-2c1.584 1.361 3.418 2.028 5.5 2 .107 2.403-.893 4.236-3 5.5l2.5.5c2.927-1.106 5.427-2.773 7.5-5 .667 0 1 .333 1 1 1.344-1.484 3.678-2.318 7-2.5a27.586 27.586 0 0 1-5-1.5 496.604 496.604 0 0 1 8-8Z"/><path style="opacity:1" fill="#a7ce5c" d="M41.5 112.5c-2.712 1.487-4.879.821-6.5-2-.022 4.544-2.188 6.044-6.5 4.5-.556-.383-.89-.883-1-1.5 2.19-.874 3.19-2.541 3-5 1.322-.17 2.489.163 3.5 1l1-2c1.965 2.05 4.132 3.717 6.5 5Z"/><path style="opacity:1" fill="#83b732" d="M63.5 121.5a2.427 2.427 0 0 0-.5-2 46.996 46.996 0 0 0-5.5 3.5c4.213 2.986 3.88 4.319-1 4-1.751-2.479-3.918-3.312-6.5-2.5v-4c-2.478-2.32-5.311-3.986-8.5-5-.172-.992.162-1.658 1-2l3-2c-.065.438.101.772.5 1 4.194-4.452 7.194-3.785 9 2 1.185-2.344 3.019-3.177 5.5-2.5a47.06 47.06 0 0 0 3.5 5.5c.765 1.566.598 2.899-.5 4Z"/><path style="opacity:1" fill="#90be3f" d="M41.5 115.5c3.189 1.014 6.022 2.68 8.5 5v4c2.582-.812 4.749.021 6.5 2.5 4.88.319 5.213-1.014 1-4a46.996 46.996 0 0 1 5.5-3.5c.464.594.631 1.261.5 2-.398 2.211-.564 4.544-.5 7a56.565 56.565 0 0 0-9.5 5c-1.264-1.93-2.93-3.597-5-5a31.638 31.638 0 0 1-5 3 30.968 30.968 0 0 1-2-2 81.286 81.286 0 0 0-5 11 21.622 21.622 0 0 0-4 5h-3v-1c5.976-6.432 8.976-13.932 9-22.5a22.37 22.37 0 0 0 3-6.5Z"/><path style="opacity:.744" fill="#b3d46c" d="M53.5 133.5c-2.166.759-3.666-.241-4.5-3-.383.556-.883.889-1.5 1l-2 1c-.992.172-1.658-.162-2-1a31.638 31.638 0 0 0 5-3c2.07 1.403 3.736 3.07 5 5Z"/><path style="opacity:.496" fill="#94b842" d="M8.5 152.5v2c-4.664-1.33-7.664-4.33-9-9v-2c1.867-5.865 5.867-9.198 12-10v3c-7.269 1.091-9.769 5.091-7.5 12 1.397 1.57 2.897 2.904 4.5 4Z"/><path style="opacity:1" fill="#86b935" d="M47.5 131.5c.903 2.891 1.236 5.891 1 9h4c-.225 3.556.608 3.89 2.5 1 1.944 1.188 3.444 2.854 4.5 5-.124.607-.457.94-1 1h-3v3a26.148 26.148 0 0 0-12-1.5c.837 1.011 1.17 2.178 1 3.5a9.86 9.86 0 0 1-6-1c1.499-1.404 1.166-2.07-1-2-.916.043-1.583.376-2 1-1.18 1.909-.846 2.242 1 1 .845 1.171 1.511 2.505 2 4 .11.617.444 1.117 1 1.5-2.666 3.553-4.666 7.386-6 11.5a27.218 27.218 0 0 1-5-3h4a4.932 4.932 0 0 0-.5-3c-6.639-2.031-8.805-6.031-6.5-12 .81-2.231 2.142-3.898 4-5h3c3.187.453 4.52-1.214 4-5a46.89 46.89 0 0 0 7-3 3.647 3.647 0 0 1 1.5 1c.495-1.973.662-3.973.5-6l2-1Zm-12 19c.667 0 1 .333 1 1-1.846 1.242-2.18.909-1-1Z"/><path style="opacity:.012" fill="#b1d86c" d="M73.5 150.5c.397-1.025 1.063-1.192 2-.5a2.429 2.429 0 0 1-2 .5Z"/><path style="opacity:.789" fill="#83b731" d="M29.5 144.5v1c-1.858 1.102-3.19 2.769-4 5-2.305 5.969-.139 9.969 6.5 12 .483.948.65 1.948.5 3h-4c-.848-1.125-1.848-1.125-3 0-1.338-2.534-2.338-2.2-3 1-4.24.923-4.74-.077-1.5-3 .595-3.675-.238-3.842-2.5-.5-1.667.667-3.333.667-5 0a331.538 331.538 0 0 1 6-5c-3.28-.056-6.28-.889-9-2.5-.798.457-1.13 1.124-1 2-.904-.709-1.237-1.709-1-3v-2c1.396-2.262 3.063-4.429 5-6.5 2.067-.536 3.9-.036 5.5 1.5 2.387-5.24 5.887-6.24 10.5-3Z"/><path style="opacity:.487" fill="#95bb44" d="M58.5 147.5c-1.291.973-1.291 1.973 0 3a7.248 7.248 0 0 1-2 2.5c-3.238 1.884-6.571 3.05-10 3.5-1.75 9.012.916 16.512 8 22.5 3.423 1.904 7.09 2.737 11 2.5h2a5.727 5.727 0 0 0 3-1c-.065.438.101.772.5 1 10.506-3.464 14.506-10.464 12-21-3.163-5.565-7.663-7.398-13.5-5.5-1.922 1.42-3.255 3.253-4 5.5-1.282-3.941.051-6.774 4-8.5 8.59-1.245 14.256 2.255 17 10.5v3c-.692 9.536-5.692 15.703-15 18.5-19.499 1.501-28.832-7.499-28-27-1.405-1.269-3.071-1.769-5-1.5-.489-1.495-1.155-2.829-2-4 0-.667-.333-1-1-1 .417-.624 1.084-.957 2-1 2.166-.07 2.499.596 1 2a9.86 9.86 0 0 0 6 1c.17-1.322-.163-2.489-1-3.5a26.148 26.148 0 0 1 12 1.5v-3h3Z"/><path style="opacity:1" fill="#86b936" d="M97.5 173.5c-1.306-5.173-3.64-5.84-7-2a38.496 38.496 0 0 1-4-6v-3l3-1.5c-1.017-1.049-1.184-2.216-.5-3.5 2.568-1.938 5.402-2.771 8.5-2.5a11.357 11.357 0 0 1 1.5 3.5c1.067-1.783 2.567-2.283 4.5-1.5 3.183 2.479 3.516 5.146 1 8 1.017 1.049 1.184 2.216.5 3.5l-7.5 5Z"/><path style="opacity:1" fill="#add165" d="M28.5 165.5a27.218 27.218 0 0 0 5 3c-2.808 1.667-4.975 1-6.5-2a8.435 8.435 0 0 0-.5 4l-2 1h-2c-.039-2.589.961-4.589 3-6 1.152-1.125 2.152-1.125 3 0Z"/><path style="opacity:.773" fill="#97c547" d="M25.5 165.5c-2.039 1.411-3.039 3.411-3 6-3.565-2.303-7.398-4.303-11.5-6-2.072-2.707-1.572-4.873 1.5-6.5-1.238-.232-2.238-.732-3-1.5-.13-.876.202-1.543 1-2 2.72 1.611 5.72 2.444 9 2.5a331.538 331.538 0 0 0-6 5c1.667.667 3.333.667 5 0 2.262-3.342 3.095-3.175 2.5.5-3.24 2.923-2.74 3.923 1.5 3 .662-3.2 1.662-3.534 3-1Z"/><path style="opacity:.314" fill="#b0d369" d="M97.5 173.5c-2.21-1.888-4.543-2.554-7-2 3.36-3.84 5.694-3.173 7 2Z"/><path style="opacity:.91" fill="#589030" d="M70.5 180.5a5.727 5.727 0 0 1-3 1c-.333-1.333-.667-1.333-1 0h-1c-2.906-2.415-3.573-5.415-2-9a11.462 11.462 0 0 1 2.5-1c1.333 1.333 2.667 1.333 4 0 4.485 2.957 4.651 5.957.5 9Z"/><path style="opacity:1" fill="#518d2f" d="M26.5 170.5c3.467-.054 6.134 1.446 8 4.5 3.475.311 5.475 2.144 6 5.5-.617-.111-1.117-.444-1.5-1-3.086 4.249-6.586 7.915-10.5 11 7.108-1.331 7.442-.831 1 1.5l9 1c.457.414.79.914 1 1.5-1.268 1.547-2.935 2.547-5 3-2.603-1.062-5.27-1.228-8-.5 5.872 6.474 5.372 7.974-1.5 4.5-.19 2.208-.69 4.208-1.5 6 .172-.992-.162-1.658-1-2v-6c-.433 2.759-2.1 4.092-5 4 .298 2.836-.369 3.336-2 1.5a89.358 89.358 0 0 1 8-13.5c2.89-4.56 4.056-9.56 3.5-15-1.651 3.633-2.818 7.3-3.5 11-2.855-5.654-2.522-10.987 1-16l2-1Z"/><path style="opacity:1" fill="#4c8a2f" d="M23.5 187.5c.682-3.7 1.849-7.367 3.5-11 .556 5.44-.61 10.44-3.5 15-1.175-.219-2.175.114-3 1-1.276 2.811-3.276 4.978-6 6.5-3.334.501-6 1.335-8 2.5-1.6-.051-3.1-.384-4.5-1a2.427 2.427 0 0 0-.5 2l-2-1v-6a311.159 311.159 0 0 0 4-3l9-1.5A100.243 100.243 0 0 0 1 187.5a2.427 2.427 0 0 0-.5 2h-1v-6a33.684 33.684 0 0 1 5.5-4c3.111-8.266 7.778-9.599 14-4a68.9 68.9 0 0 1 2 14c1.625.912 2.459.245 2.5-2Z"/><path style="opacity:1" fill="#64982a" d="M3.5 192.5a6.544 6.544 0 0 1-3-3 2.427 2.427 0 0 1 .5-2c3.88.93 7.714 2.096 11.5 3.5l-9 1.5Z"/><path style="opacity:1" fill="#699832" d="M40.5 180.5c.735 2.932-.265 5.432-3 7.5 6.403 1.304 8.07 4.804 5 10.5-1.571 1.915-3.571 2.915-6 3 .783 5.058-1.217 8.558-6 10.5-3.605.528-5.939-.972-7-4.5.81-1.792 1.31-3.792 1.5-6 6.872 3.474 7.372 1.974 1.5-4.5 2.73-.728 5.397-.562 8 .5 2.065-.453 3.732-1.453 5-3a3.646 3.646 0 0 0-1-1.5l-9-1c6.442-2.331 6.108-2.831-1-1.5 3.914-3.085 7.414-6.751 10.5-11 .383.556.883.889 1.5 1Z"/><path style="opacity:1" fill="#669730" d="M23.5 191.5a89.358 89.358 0 0 0-8 13.5c1.631 1.836 2.298 1.336 2-1.5 2.9.092 4.567-1.241 5-4v6c.357 7.643-2.976 10.143-10 7.5a14.505 14.505 0 0 1-4-5l-6-3c-.752-.671-1.086-1.504-1-2.5a2.427 2.427 0 0 1 .5-2c1.4.616 2.9.949 4.5 1 2-1.165 4.666-1.999 8-2.5 2.724-1.522 4.724-3.689 6-6.5.825-.886 1.825-1.219 3-1Z"/><path style="opacity:1" fill="#83b731" d="M55.5 227.5a2.427 2.427 0 0 0-.5-2 34.023 34.023 0 0 1-8.5 3c.457.798 1.124 1.131 2 1 .359 1.871 1.359 3.371 3 4.5-3.356.357-6.19-.809-8.5-3.5-1.333 1.333-2.667 1.333-4 0-1.938 3.376-4.772 5.376-8.5 6-.285-3.538 1.382-5.371 5-5.5a50.464 50.464 0 0 0-10-.5c-2.12-4.418-.786-7.251 4-8.5-2.12-1.523-2.453-3.356-1-5.5a315.435 315.435 0 0 0 11.5-5c3.772.681 5.439 3.015 5 7 1.94-3.108 4.606-3.775 8-2a30.551 30.551 0 0 0 4.5 8c-.442 1.239-1.11 2.239-2 3Zm-13-5c1.297 1.349 1.13 2.682-.5 4-.195-1.319-.028-2.653.5-4Z"/><path style="opacity:.051" fill="#add161" d="M55.5 227.5c-.333 1-1 1.667-2 2h-5c-.876.131-1.543-.202-2-1a34.023 34.023 0 0 0 8.5-3c.464.594.631 1.261.5 2Z"/><path style="opacity:1" fill="#92c241" d="M48.5 229.5h5c2.421 2.123 2.588 4.456.5 7a146.469 146.469 0 0 0-8.5 4 2.427 2.427 0 0 0-.5-2c-1.011.837-2.178 1.17-3.5 1 .278-1.846-.389-3.18-2-4-3.222.774-6.556 1.774-10 3a76.58 76.58 0 0 1-4-8c3.35-.165 6.683.002 10 .5-3.618.129-5.285 1.962-5 5.5 3.728-.624 6.562-2.624 8.5-6 1.333 1.333 2.667 1.333 4 0 2.31 2.691 5.144 3.857 8.5 3.5-1.641-1.129-2.641-2.629-3-4.5Z"/><path style="opacity:1" fill="#a9cf5e" d="M45.5 240.5c-.812 1.493-2.145 2.16-4 2-2.801.036-4.635-1.297-5.5-4-2.293 2.634-4.46 2.634-6.5 0 3.444-1.226 6.778-2.226 10-3 1.611.82 2.278 2.154 2 4 1.322.17 2.489-.163 3.5-1 .464.594.631 1.261.5 2Z"/><path style="opacity:.802" fill="#abd062" d="M437.5 483.5c2.792-.048 4.625 1.285 5.5 4 1.678-2.053 3.511-2.387 5.5-1-2.21.851-4.21 2.184-6 4-2.904-1.484-4.571-3.817-5-7Z"/><path style="opacity:.938" fill="#90c140" d="M437.5 483.5c.429 3.183 2.096 5.516 5 7 1.79-1.816 3.79-3.149 6-4 .958.453 1.792 1.119 2.5 2 .153 2.651.987 4.984 2.5 7a8.43 8.43 0 0 1-.5 4c-4.187-2.185-8.52-2.519-13-1a58.653 58.653 0 0 0-11-7l-1.5.5a11.532 11.532 0 0 1 3.5 4.5 11.333 11.333 0 0 0 3.5 1.5c-3.608.026-6.942.859-10 2.5-.798-.457-1.131-1.124-1-2 .453-.958 1.119-1.792 2-2.5-2.478-1.938-2.645-4.105-.5-6.5 4.562-1.482 8.728-3.482 12.5-6Z"/><path style="opacity:1" fill="#81b630" d="M453.5 495.5c2.119 4.418.786 7.251-4 8.5 2.12 1.523 2.453 3.356 1 5.5a134.412 134.412 0 0 0-11 5c-4.179-.357-6.013-2.69-5.5-7-1.846 3.283-4.346 4.117-7.5 2.5a43.838 43.838 0 0 0-5-8.5c.442-1.239 1.109-2.239 2-3-.131.876.202 1.543 1 2 3.058-1.641 6.392-2.474 10-2.5a11.333 11.333 0 0 1-3.5-1.5 11.532 11.532 0 0 0-3.5-4.5l1.5-.5a58.653 58.653 0 0 1 11 7c4.48-1.519 8.813-1.185 13 1a8.43 8.43 0 0 0 .5-4Zm-18 9c-.269-1.929.231-3.595 1.5-5 .203 1.891-.297 3.557-1.5 5Z"/><path style="opacity:.735" fill="#6e9b31" d="M467.5 514.5c-.184 2.425-.851 2.425-2 0a39.617 39.617 0 0 0-9 12 10.258 10.258 0 0 1-1.5-4l-1 2c-1.597-2.719-3.763-4.886-6.5-6.5-1.244-.456-2.077.044-2.5 1.5a2.428 2.428 0 0 1-.5-2c5.359-5.759 9.192-4.759 11.5 3-.243-4.877 1.923-7.877 6.5-9 2.192.257 3.859 1.257 5 3Z"/><path style="opacity:.881" fill="#60942f" d="M467.5 514.5c1.465.906 2.465 2.239 3 4l6 2.5c.752.671 1.086 1.504 1 2.5a2.428 2.428 0 0 1-.5 2c-7.291-2.076-13.291-.076-18 6a4.934 4.934 0 0 0-.5 3h-3c.282-1.278.949-2.278 2-3 .172-.992-.162-1.658-1-2-2.583-2.402-5.083-5.068-7.5-8-.746 3.289.42 5.789 3.5 7.5-2.535.617-4.868.117-7-1.5-1.631 1.797-3.631 2.964-6 3.5 3.637 1.166 7.304 2.333 11 3.5v1l-9 2c-5.656-.367-7.489-3.367-5.5-9 1.571-2.423 3.737-3.756 6.5-4-.329-2.728.337-5.062 2-7a2.428 2.428 0 0 0 .5 2c.423-1.456 1.256-1.956 2.5-1.5 2.737 1.614 4.903 3.781 6.5 6.5l1-2a10.258 10.258 0 0 0 1.5 4 39.617 39.617 0 0 1 9-12c1.149 2.425 1.816 2.425 2 0Z"/><path style="opacity:1" fill="#4f8c2f" d="m477.5 523.5 2 1v6a16.58 16.58 0 0 1-4 2.5 19.552 19.552 0 0 0 4 3.5v6a33.673 33.673 0 0 1-5.5 4c-1.373 4.206-4.207 6.873-8.5 8-1.538.047-2.538-.62-3-2 1.478.262 2.811-.071 4-1-3.719-4.109-6.385-8.775-8-14-1.513-2.548-2.513-2.215-3 1-.498 3.79-1.665 7.456-3.5 11-.425-5.376.742-10.376 3.5-15h3a4.934 4.934 0 0 1 .5-3c4.709-6.076 10.709-8.076 18-6a2.428 2.428 0 0 0 .5-2Z"/><path style="opacity:.91" fill="#7aa037" d="M450.5 535.5h1c-5.583 1.748-9.417 5.415-11.5 11-.383-.556-.883-.889-1.5-1-.484-3.288.516-5.955 3-8l9-2Z"/><path style="opacity:1" fill="#518d2e" d="M456.5 529.5c-.172.992.162 1.658 1 2-1.051.722-1.718 1.722-2 3-2.758 4.624-3.925 9.624-3.5 15 1.835-3.544 3.002-7.21 3.5-11 2.847 5.631 2.513 10.964-1 16l-2 1c-3.467.054-6.134-1.446-8-4.5-3.475-.311-5.475-2.144-6-5.5.617.111 1.117.444 1.5 1 2.083-5.585 5.917-9.252 11.5-11 0-.667-.333-1-1-1a2622.572 2622.572 0 0 1-11-3.5c2.369-.536 4.369-1.703 6-3.5 2.132 1.617 4.465 2.117 7 1.5-3.08-1.711-4.246-4.211-3.5-7.5 2.417 2.932 4.917 5.598 7.5 8Z"/><path style="opacity:.482" fill="#95bc44" d="M440.5 570.5c.489 1.495 1.155 2.829 2 4 .827.939 1.494.605 2-1a32.128 32.128 0 0 0 7-3l1 1a45.59 45.59 0 0 0-9 7 32.444 32.444 0 0 0-6-1.5l3-2.5-1-1c-1.333 1.333-2.667 1.333-4 0-.613 1.48-.946 2.813-1 4l-3-1.5 1-1a20.431 20.431 0 0 1-5.5-1.5c-.772 1.349-1.939 2.182-3.5 2.5l2 2a42.47 42.47 0 0 1-5 1.5c.863-1.44.863-2.774 0-4 2.375-3.608 5.541-4.941 9.5-4 4.7-9.209 2.866-17.376-5.5-24.5-4.121-1.899-8.454-2.732-13-2.5-1.291-.237-2.291.096-3 1-12.036 3.072-15.869 10.406-11.5 22 6.631 7.273 12.131 6.606 16.5-2 1.72 4.148.387 6.981-4 8.5-5.169 1.295-9.669.128-13.5-3.5a785.54 785.54 0 0 0-4.5-7v-3c3.31-14.017 12.31-20.184 27-18.5 8.807 2.14 14.307 7.64 16.5 16.5a47.208 47.208 0 0 1 1.5 12h4Zm4 3c-.506 1.605-1.173 1.939-2 1 .342-.838 1.008-1.172 2-1Z"/><path style="opacity:.894" fill="#5e922c" d="M458.5 537.5c1.615 5.225 4.281 9.891 8 14-1.189.929-2.522 1.262-4 1-2.11-.953-3.277-2.619-3.5-5a50.464 50.464 0 0 1-.5-10Z"/><path style="opacity:.642" fill="#5a9130" d="M411.5 544.5c2.703.702 4.703 2.369 6 5-.401 1.934-1.401 3.434-3 4.5-1.962-.141-3.796.026-5.5.5-4.485-2.957-4.652-5.957-.5-9 .709-.904 1.709-1.237 3-1Z"/><path style="opacity:1" fill="#aed266" d="M454.5 554.5h2c-.004 2.342-.837 4.342-2.5 6a843.54 843.54 0 0 0-9.5-2c2.379-2.64 4.879-2.64 7.5 0a4.934 4.934 0 0 0 .5-3l2-1Z"/><path style="opacity:1" fill="#88bb38" d="M391.5 560.5v3c-.418.722-1.084 1.222-2 1.5 1.017 1.049 1.184 2.216.5 3.5a77.006 77.006 0 0 0-6.5 3c-1.925-.09-3.092-1.09-3.5-3-1.388 1.054-2.888 1.22-4.5.5-3.183-2.479-3.516-5.146-1-8-1.017-1.049-1.184-2.216-.5-3.5a80.332 80.332 0 0 1 8-5c1.261.259 2.261.926 3 2 1.049-1.017 2.216-1.184 3.5-.5 1.671 1.843 2.671 4.009 3 6.5Z"/><path style="opacity:1" fill="#8bbd39" d="M456.5 554.5c3.565 2.303 7.398 4.303 11.5 6 2.072 2.707 1.572 4.873-1.5 6.5 2.947.112 4.28 1.612 4 4.5v2c-1.396 2.262-3.063 4.429-5 6.5-2.067.536-3.901.036-5.5-1.5-.498 2.044-1.665 3.378-3.5 4a116.016 116.016 0 0 1 0-12c.706 1.057 1.039.724 1-1a10.165 10.165 0 0 1-3-3 43.836 43.836 0 0 1-2-1 461.795 461.795 0 0 0-10.5 2 2.428 2.428 0 0 1-.5-2 19.507 19.507 0 0 0 3-7 843.54 843.54 0 0 1 9.5 2c1.663-1.658 2.496-3.658 2.5-6Z"/><path style="opacity:.498" fill="#94b842" d="M470.5 571.5c4.24 1.238 7.24 3.905 9 8v4c-2.289 5.289-6.289 8.289-12 9v-3c7.281-1.1 9.781-5.1 7.5-12-1.397-1.57-2.897-2.904-4.5-4v-2Z"/><path style="opacity:.008" fill="#b0d769" d="M403.5 576.5c.397-1.025 1.063-1.192 2-.5a2.428 2.428 0 0 1-2 .5Z"/><path style="opacity:1" fill="#83b733" d="M441.5 565.5a2.428 2.428 0 0 0 .5 2 461.795 461.795 0 0 1 10.5-2c.683.363 1.35.696 2 1a10.165 10.165 0 0 0 3 3c-.667 0-1 .333-1 1a116.016 116.016 0 0 0 0 12c-2.47 1.378-4.804 1.045-7-1-.709-.904-1.709-1.237-3-1-.617-.111-1.117-.444-1.5-1-1.669 1.669-2.502 3.669-2.5 6a27.004 27.004 0 0 0-6.5 3 3.943 3.943 0 0 1-2-1 18.453 18.453 0 0 0-.5 6l-2 1a55.146 55.146 0 0 1-1.5-9c-2.228.799-3.561-.201-4-3-3.259 2.656-5.092 1.656-5.5-3a42.47 42.47 0 0 0 5-1.5l-2-2c1.561-.318 2.728-1.151 3.5-2.5a20.431 20.431 0 0 0 5.5 1.5l-1 1 3 1.5c.054-1.187.387-2.52 1-4 1.333 1.333 2.667 1.333 4 0l1 1-3 2.5c2.056.311 4.056.811 6 1.5a45.59 45.59 0 0 1 9-7l-1-1a32.128 32.128 0 0 1-7 3c-.992-.172-1.658.162-2 1-.845-1.171-1.511-2.505-2-4-.284-1.915.049-3.581 1-5Zm3 8c-.506 1.605-1.173 1.939-2 1 .342-.838 1.008-1.172 2-1Z"/><path style="opacity:1" fill="#97c347" d="M446.5 580.5c1.291-.237 2.291.096 3 1-5.188 6.045-8.521 13.045-10 21-6.228 1.341-10.895-.992-14-7-1 .333-1.667 1-2 2 .826.951.992 1.951.5 3-1.356-.88-2.856-1.214-4.5-1-.14 1.624.527 2.79 2 3.5a47.02 47.02 0 0 1-5.5 3.5 2.428 2.428 0 0 1-.5-2c1.222-1.437 1.222-2.937 0-4.5a6.201 6.201 0 0 1 2-3.5 69.04 69.04 0 0 0 8.5-4c2.188-.146 3.521.854 4 3 .383-.556.883-.889 1.5-1l2-1c1.884.212 3.217 1.212 4 3a81.31 81.31 0 0 0 5-11 21.614 21.614 0 0 0 4-5Z"/><path style="opacity:1" fill="#83b831" d="M439.5 602.5c.597.235.93.735 1 1.5-1.699 2.761-3.032 5.594-4 8.5l-3 2c.065-.438-.101-.772-.5-1-4.145 4.475-7.145 3.809-9-2-.949 2.7-2.783 3.533-5.5 2.5a47.02 47.02 0 0 0-3.5-5.5c-.765-1.566-.598-2.899.5-4a2.428 2.428 0 0 0 .5 2 47.02 47.02 0 0 0 5.5-3.5c-1.473-.71-2.14-1.876-2-3.5 1.644-.214 3.144.12 4.5 1 .492-1.049.326-2.049-.5-3 .333-1 1-1.667 2-2 3.105 6.008 7.772 8.341 14 7Z"/><path style="opacity:1" fill="#9ac54c" d="M458.5 616.5c-1.042 1.291-2.208 1.291-3.5 0l-5 5c.932-2.082 1.432-4.415 1.5-7-1.175-.219-2.175.114-3 1a33.242 33.242 0 0 0-3.5 6c-1.312-2.738-3.478-4.072-6.5-4v3c2.342.004 4.342.837 6 2.5-4.063.038-7.897.872-11.5 2.5-.399-.228-.565-.562-.5-1a44.866 44.866 0 0 0 1-10l3-2a2.428 2.428 0 0 0 .5 2c2.632-2.692 4.966-2.359 7 1 3.007-6.611 6.34-6.611 10 0 1.749-1.053 3.249-.72 4.5 1Z"/><path style="opacity:.094" fill="#aad05d" d="M458.5 623.5c1.527-.073 2.527.594 3 2 .131.876-.202 1.543-1 2a33.242 33.242 0 0 0-6-3.5 8.43 8.43 0 0 1 4-.5Z"/><path style="opacity:.294" fill="#8bbd3b" d="M267.5 629.5h-3c-1.122-1.447-2.622-2.447-4.5-3 .544-2.216.377-4.383-.5-6.5.203-2.406 1.203-4.406 3-6 .949-.617 1.782-.451 2.5.5 1.775-2.544 3.608-2.544 5.5 0a31.513 31.513 0 0 0 3 7.5 14.325 14.325 0 0 0-2.5 5.5 19.602 19.602 0 0 0-3.5 2Z"/><path style="opacity:1" fill="#83b832" d="M458.5 616.5c4 2.333 4 4.667 0 7a8.43 8.43 0 0 0-4 .5 33.242 33.242 0 0 1 6 3.5c.798-.457 1.131-1.124 1-2 .667 0 1 .333 1 1v4h-3c-.69 5.679-3.357 7.013-8 4-.333-1.333-.667-1.333-1 0-.738 2.44-2.071 4.44-4 6a27.718 27.718 0 0 0-9-3 319.364 319.364 0 0 0-2-5c1.46-2.853.793-3.853-2-3l-2-4c.124-.607.457-.94 1-1-.065.438.101.772.5 1 3.603-1.628 7.437-2.462 11.5-2.5-1.658-1.663-3.658-2.496-6-2.5v-3c3.022-.072 5.188 1.262 6.5 4a33.242 33.242 0 0 1 3.5-6c.825-.886 1.825-1.219 3-1-.068 2.585-.568 4.918-1.5 7l5-5c1.292 1.291 2.458 1.291 3.5 0Z"/><path style="opacity:.974" fill="#9fc953" d="M432.5 637.5a12.93 12.93 0 0 1-5-.5l2-2c-2.777-.061-4.777-1.228-6-3.5 1.728.122 3.561.122 5.5 0 1.935 1.534 3.101 3.534 3.5 6Z"/><path style="opacity:.552" fill="#96bb45" d="M437.5 637.5a144.329 144.329 0 0 0 4 18c.019 1.56.352 3.06 1 4.5-.982.381-1.648 1.214-2 2.5 1.403 1.917 1.07 2.917-1 3-1.885-1.553-2.885-3.553-3-6 1.309-1.124 1.975-2.624 2-4.5a158.26 158.26 0 0 1-5-25.5c2.793-.853 3.46.147 2 3a319.364 319.364 0 0 1 2 5Z"/><path style="opacity:.957" fill="#86ba35" d="M423.5 631.5c1.223 2.272 3.223 3.439 6 3.5l-2 2a12.93 12.93 0 0 0 5 .5c.543.06.876.393 1 1-1.037 3.303-3.037 5.803-6 7.5-2.388.865-3.888.032-4.5-2.5a3.647 3.647 0 0 1-1.5 1c-1.159-3.622-1.325-7.289-.5-11 .708-.881 1.542-1.547 2.5-2Z"/><path style="opacity:.979" fill="#57902f" d="M479.5 634.5v3c-.809.969-1.809 1.802-3 2.5.916.278 1.582.778 2 1.5a2.428 2.428 0 0 1-.5 2 67.621 67.621 0 0 1-13-3c-1.301.139-2.134.805-2.5 2 .164 5.667.497 6 1 1l4.5 9c3.41 1.374 3.243 2.041-.5 2-2.328-1.236-3.494-3.236-3.5-6 .355 4.088-1.145 7.088-4.5 9l-4-2c-.333-1-1-1.667-2-2-1.21-.432-2.21-1.099-3-2 1.026-2.872 2.692-5.372 5-7.5a32.462 32.462 0 0 0-8-.5 5.727 5.727 0 0 1-1-3c1.929-1.56 3.262-3.56 4-6h1c4.643 3.013 7.31 1.679 8-4h3v-4c1.66-1.748 3.66-2.248 6-1.5a411.802 411.802 0 0 0 11 9.5Z"/><path style="opacity:.914" fill="#558f2f" d="M254.5 640.5c2.222-.322 4.056.345 5.5 2 .497 2.31.663 4.643.5 7a6.846 6.846 0 0 0-4 1 185.977 185.977 0 0 0-3-2c.775-1.888.775-3.888 0-6 .667 0 1-.333 1-1v-1Z"/><path style="opacity:.409" fill="#93b741" d="M264.5 629.5h3c8.479 4.342 10.146 10.508 5 18.5-1.444.781-2.777.614-4-.5 5.624-3.289 6.458-7.622 2.5-13-7.894-4.98-13.394-2.98-16.5 6v1c-.667 0-1 .333-1 1 .775 2.112.775 4.112 0 6 1.424 11.738 8.091 16.738 20 15 1.21.432 2.21 1.099 3 2-19.971 2.528-28.138-6.139-24.5-26 2.3-5.812 6.466-9.146 12.5-10Z"/><path style="opacity:.987" fill="#4c8a30" d="M478.5 641.5h1v6c-3.119 1.717-5.453 4.217-7 7.5-1.887.78-3.554.613-5-.5 3.743.041 3.91-.626.5-2l-4.5-9c0-.667-.333-1-1-1 .366-1.195 1.199-1.861 2.5-2a67.621 67.621 0 0 0 13 3 2.428 2.428 0 0 0 .5-2Z"/><path style="opacity:1" fill="#79a336" d="M447.5 643.5a32.462 32.462 0 0 1 8 .5c-2.308 2.128-3.974 4.628-5 7.5-1.442-2.317-1.108-4.484 1-6.5a4.934 4.934 0 0 0-3-.5c-.667 0-1-.333-1-1Z"/><path style="opacity:.99" fill="#94c343" d="M374.5 657.5v4c-1.354-1.871-3.021-3.537-5-5-1.041 3.974-.207 7.641 2.5 11 .671.752 1.504 1.086 2.5 1v1c-1.21.432-2.21 1.099-3 2l-4 1c-3.008-1.137-5.008-3.137-6-6 .645-1.312 1.645-2.312 3-3 .929-1.189 1.262-2.522 1-4 1.822-6.949 4.822-7.615 9-2Z"/><path style="opacity:.392" fill="#89bb39" d="M322.5 664.5a23.72 23.72 0 0 1-5-4c.255-1.843.422-3.843.5-6 2.804-1.844 5.97-2.511 9.5-2-.028 2.082.639 3.916 2 5.5a32.79 32.79 0 0 0-3.5 5.5l-1-1c-.708.881-1.542 1.547-2.5 2Z"/><path style="opacity:1" fill="#84b831" d="M383.5 667.5c-1.792-.134-3.458.199-5 1-1.673-.843-2.84-2.176-3.5-4a8.43 8.43 0 0 0-.5 4c-.996.086-1.829-.248-2.5-1-2.707-3.359-3.541-7.026-2.5-11 1.979 1.463 3.646 3.129 5 5 .954-1.819 2.288-4.152 4-7-.457-.798-1.124-1.131-2-1 .761-.891 1.761-1.558 3-2a25.46 25.46 0 0 0 8.5 6c1.654 2.775 1.321 5.442-1 8a19.602 19.602 0 0 0-3.5 2Z"/><path style="opacity:.812" fill="#add164" d="M376.5 653.5c.876-.131 1.543.202 2 1-1.712 2.848-3.046 5.181-4 7v-4c-.271-1.88.396-3.213 2-4Z"/><path style="opacity:1" fill="#95c345" d="M448.5 644.5a4.934 4.934 0 0 1 3 .5c-2.108 2.016-2.442 4.183-1 6.5.79.901 1.79 1.568 3 2-.912 1.238-1.079 2.572-.5 4 .417-1.256 1.25-1.923 2.5-2-.882 4.093-2.549 7.76-5 11v-1a35.919 35.919 0 0 1-.5-12l-2 2-1 11c-2.173-2.777-2.673-2.61-1.5.5a26.366 26.366 0 0 0-7 5c.113 1.28.78 2.113 2 2.5 5.412-4.052 5.912-3.718 1.5 1-.186 2.536-.686 4.869-1.5 7-.667 0-1-.333-1-1a12.93 12.93 0 0 0-.5-5c-.417-1.256-1.25-1.923-2.5-2 0-.667-.333-1-1-1-.333-1.333-.667-1.333-1 0-1.291.237-2.291-.096-3-1v-1h4c.157-2.818 1.491-4.818 4-6 2.07-.083 2.403-1.083 1-3 .352-1.286 1.018-2.119 2-2.5a11.187 11.187 0 0 1-1-4.5c4.05-1.172 5.717-3.672 5-7.5a11.803 11.803 0 0 1 2-3.5Z"/><path style="opacity:.051" fill="#749d37" d="M462.5 659.5c9.333 1 9.333 2 0 3v-3Z"/><path style="opacity:.6" fill="#81b631" d="M304.5 664.5a5.727 5.727 0 0 0-1 3v1h-1c-.454-2.64-1.621-4.973-3.5-7-.871 7.924-2.038 7.924-3.5 0-1.097-2.035-2.763-3.368-5-4 .605-1.981 1.605-2.315 3-1 .886-.825 1.219-1.825 1-3 3.07-.193 4.07-1.527 3-4 .283-.789.783-1.456 1.5-2 2.583 1.604 4.75 3.604 6.5 6a7.248 7.248 0 0 1-2 2.5c3.632 2.347 3.965 5.18 1 8.5Z"/><path style="opacity:1" fill="#92bf41" d="M297.5 649.5c1.07 2.473.07 3.807-3 4 .219 1.175-.114 2.175-1 3-1.395-1.315-2.395-.981-3 1 2.237.632 3.903 1.965 5 4 1.462 7.924 2.629 7.924 3.5 0 1.879 2.027 3.046 4.36 3.5 7-7.975.629-15.308 3.629-22 9-.904-.709-1.237-1.709-1-3 3.945-2.31 7.945-4.643 12-7-1.05-2.373-2.883-3.373-5.5-3a26.922 26.922 0 0 0-8 2c-.765-.07-1.265-.403-1.5-1-.79-.901-1.79-1.568-3-2-2.039-5.755-.206-9.422 5.5-11 1.505 1.173 3.005 2.339 4.5 3.5-.284 1.956-.284 4.123 0 6.5 2.357.163 4.69-.003 7-.5-1.896-1.808-2.396-3.975-1.5-6.5a69.2 69.2 0 0 1 4.5-6.5c1.319-.195 2.653-.028 4 .5Z"/><path style="opacity:.488" fill="#94b841" d="M316.5 664.5h6a335.09 335.09 0 0 1 20 6c.237 1.291-.096 2.291-1 3a79.074 79.074 0 0 0-20-6c-2.031-.472-3.698-1.472-5-3Z"/><path style="opacity:1" fill="#82b731" d="M450.5 665.5c-1.333.333-1.333.667 0 1 2.451-3.24 4.118-6.907 5-11l4 2a48.064 48.064 0 0 1 2.5 13c-1.869 3.191-4.369 3.858-7.5 2 3.947 1.779 5.447 4.779 4.5 9a63.665 63.665 0 0 0-8 5c-1.07-.028-1.903-.361-2.5-1 .876.131 1.543-.202 2-1-1.562-3.474-2.395-7.14-2.5-11-.691 3.714-2.191 7.048-4.5 10 .124.607.457.94 1 1-1.792.973-3.125.306-4-2 .814-2.131 1.314-4.464 1.5-7 4.412-4.718 3.912-5.052-1.5-1-1.22-.387-1.887-1.22-2-2.5a26.366 26.366 0 0 1 7-5c-1.173-3.11-.673-3.277 1.5-.5l1-11 2-2a35.919 35.919 0 0 0 .5 12Zm4 7a8.43 8.43 0 0 1-4-.5c-.951-.718-1.117-1.551-.5-2.5 1.409 1.281 2.909 2.281 4.5 3Z"/><path style="opacity:.988" fill="#81b631" d="M403.5 662.5c.06-.543.393-.876 1-1a19.887 19.887 0 0 1 4 3.5 29.922 29.922 0 0 1 0 6.5c-.667 0-1 .333-1 1-1.4.6-2.4 1.6-3 3-.342.838-1.008 1.172-2 1-.845-3.571-1.178-7.071-1-10.5 1.288.027 2.288-.973 3-3-.228-.399-.562-.565-1-.5Z"/><path style="opacity:1" fill="#508c2f" d="M432.5 658.5c1.462-.971 2.795-.638 4 1 .115 2.447 1.115 4.447 3 6-2.509 1.182-3.843 3.182-4 6h-4c-5.333.333-5.333.667 0 1 .709.904 1.709 1.237 3 1h1c.667 0 1 .333 1 1 1.25.077 2.083.744 2.5 2a12.93 12.93 0 0 1 .5 5 6.547 6.547 0 0 0-3 3c-2.169-2.098-3.835-4.598-5-7.5-1.496-.507-2.663-.007-3.5 1.5-.307-3.376-2.14-4.71-5.5-4-1.256.404-2.423 1.071-3.5 2l-1.5-1 6-4a25.936 25.936 0 0 0-4-4.5c.35-1.257 1.017-1.591 2-1a12.14 12.14 0 0 0 3.5 4.5c-.518-3.925-.518-7.925 0-12l1-1a45.984 45.984 0 0 0 2 10l5.5-7.5c-.556-.383-.889-.883-1-1.5Z"/><path style="opacity:1" fill="#6b9a33" d="M356.5 657.5c.891.761 1.558 1.761 2 3-2.121 8.661-1.121 16.828 3 24.5l-1 1.5a55.26 55.26 0 0 0-8-13.5 8.43 8.43 0 0 0-4-.5c1.701 2.744 3.034 5.744 4 9h-6c-3.658-1.297-5.324-3.963-5-8 .904-.709 1.237-1.709 1-3 1.948-4.253 5.281-5.92 10-5 .294-3.254 1.627-5.921 4-8Z"/><path style="opacity:1" fill="#5a9531" d="M378.5 668.5v1c-.667 0-1 .333-1 1a262.45 262.45 0 0 0 3 14 144.181 144.181 0 0 1-6-15v-1a8.43 8.43 0 0 1 .5-4c.66 1.824 1.827 3.157 3.5 4Z"/><path style="opacity:1" fill="#abcf63" d="M361.5 666.5c.992 2.863 2.992 4.863 6 6-3.927 3.13-6.261 2.13-7-3 .02-1.226.353-2.226 1-3Z"/><path style="opacity:.733" fill="#84b834" d="M383.5 667.5c6.175-.823 9.175 1.844 9 8-1.406.473-2.073 1.473-2 3-1.733.508-2.066 1.341-1 2.5-1.483 5.582-4.483 6.748-9 3.5a262.45 262.45 0 0 1-3-14c.667 0 1-.333 1-1 1.903-.296 3.57-.963 5-2Z"/><path style="opacity:.824" fill="#92b741" d="M415.5 669.5c1.478-.262 2.811.071 4 1-2.717.474-5.05 1.474-7 3-.667 0-1 .333-1 1a51.569 51.569 0 0 1-7 1c.6-1.4 1.6-2.4 3-3 .667 0 1-.333 1-1 2.652.09 4.985-.576 7-2Z"/><path style="opacity:1" fill="#83b832" d="M270.5 669.5c2.568.094 4.068 1.428 4.5 4 1.915-1.416 3.415-1.082 4.5 1-.237 1.291.096 2.291 1 3 3.107 3.966 2.44 7.132-2 9.5 1.074.739 1.741 1.739 2 3-1.366 2.239-3.033 4.073-5 5.5h-4c.448-4.667-.218-9.334-2-14 1.181-4.069 1.515-8.069 1-12Z"/><path style="opacity:.198" fill="#85b934" d="M311.5 663.5c1.955-1.43 3.621-1.097 5 1 1.302 1.528 2.969 2.528 5 3a349.416 349.416 0 0 1 3 8c-.838.342-1.172 1.008-1 2a5.727 5.727 0 0 1-3 1c-1.333.333-1.333.667 0 1 1.367 5.003-.633 8.003-6 9-1.25-.077-2.083-.744-2.5-2-1.616 1.301-3.116 1.301-4.5 0-.445-2.865.222-5.365 2-7.5-1.451.263-2.784.096-4-.5a32.45 32.45 0 0 1 5-4.5c-2.559-1.323-3.225-3.157-2-5.5a12.403 12.403 0 0 1 2.5 4c.27-2.724.77-5.391 1.5-8-.124-.607-.457-.94-1-1Z"/><path style="opacity:.45" fill="#95bc44" d="M403.5 662.5c.438-.065.772.101 1 .5-.712 2.027-1.712 3.027-3 3-.178 3.429.155 6.929 1 10.5a112.641 112.641 0 0 1-12 2c-.073-1.527.594-2.527 2-3a52.56 52.56 0 0 0 7-1.5 66.678 66.678 0 0 1-2-5.5c1.306-1.412 2.14-3.079 2.5-5 1.011-.837 2.178-1.17 3.5-1Z"/><path style="opacity:1" fill="#689831" d="M432.5 658.5c.111.617.444 1.117 1 1.5l-5.5 7.5a45.984 45.984 0 0 1-2-10l-1 1c-.518 4.075-.518 8.075 0 12a12.14 12.14 0 0 1-3.5-4.5c-.983-.591-1.65-.257-2 1a25.936 25.936 0 0 1 4 4.5l-6 4 1.5 1c1.077-.929 2.244-1.596 3.5-2a92.95 92.95 0 0 1-7 6c-2.586-.987-3.919-2.987-4-6 .667 0 1-.333 1-1 1.95-1.526 4.283-2.526 7-3-1.189-.929-2.522-1.262-4-1-2.458-1.993-2.625-4.326-.5-7 3.461-1.317 6.294-3.484 8.5-6.5 4.312-1.544 6.478-.044 6.5 4.5.417-1.256 1.25-1.923 2.5-2Z"/><path style="opacity:.984" fill="#84b833" d="M239.5 675.5c.235-.597.735-.93 1.5-1 1.338 1.006 2.671 2.006 4 3 .617.949.451 1.782-.5 2.5 2.797 4.925 1.464 8.425-4 10.5-1.664-1.449-2.498-3.449-2.5-6a7.293 7.293 0 0 1-2 3 32.444 32.444 0 0 0-1.5-6 8.192 8.192 0 0 0 2.5-4c.893 1.211 1.726 1.211 2.5 0 1.05-.929 1.05-1.595 0-2Z"/><path style="opacity:.839" fill="#9ec850" d="M311.5 663.5c.543.06.876.393 1 1a46.745 46.745 0 0 0-1.5 8 12.403 12.403 0 0 0-2.5-4c-1.225 2.343-.559 4.177 2 5.5a32.45 32.45 0 0 0-5 4.5c1.216.596 2.549.763 4 .5-1.778 2.135-2.445 4.635-2 7.5a100.304 100.304 0 0 0-4.5-7c-1.14-3.028-.306-5.195 2.5-6.5a9.175 9.175 0 0 1-2-4.5c1.333-.333 1.333-.667 0-1a5.727 5.727 0 0 1 1-3c2.45.202 4.783-.131 7-1Z"/><path style="opacity:.341" fill="#9ec750" d="M448.5 685.5c-.768-.763-1.268-1.763-1.5-3-.708.881-1.542 1.547-2.5 2-.543-.06-.876-.393-1-1 2.309-2.952 3.809-6.286 4.5-10 .105 3.86.938 7.526 2.5 11-.457.798-1.124 1.131-2 1Z"/><path style="opacity:1" fill="#9cc64d" d="M239.5 675.5c1.05.405 1.05 1.071 0 2-.774 1.211-1.607 1.211-2.5 0a8.192 8.192 0 0 1-2.5 4 32.444 32.444 0 0 1 1.5 6 7.293 7.293 0 0 0 2-3c.002 2.551.836 4.551 2.5 6 .111.617.444 1.117 1 1.5-2.402.814-4.735.647-7-.5a4.457 4.457 0 0 1 2-1.5 9.454 9.454 0 0 1-2.5-1.5c-2.473-5.437-1.473-10.103 3-14 .671.752 1.504 1.086 2.5 1Z"/><path style="opacity:1" fill="#85b932" d="M374.5 669.5a144.181 144.181 0 0 0 6 15c.241 2.534-.759 4.2-3 5-1.915.284-3.581-.049-5-1 .438.065.772-.101 1-.5a7.248 7.248 0 0 1-2-2.5c2.064-8.984 1.064-10.15-3-3.5-1.1.432-1.767-.068-2-1.5a31.684 31.684 0 0 1 2-6c1.1-1.058 2.434-1.892 4-2.5-.228-.399-.562-.565-1-.5.79-.901 1.79-1.568 3-2Z"/><path style="opacity:.188" fill="#92c242" d="M270.5 669.5c.515 3.931.181 7.931-1 12 1.782 4.666 2.448 9.333 2 14-1.037-2.183-2.537-2.516-4.5-1-1.261-.259-2.261-.926-3-2a29.746 29.746 0 0 0-3.5-8.5c-.146-2.188.854-3.521 3-4-2.287-2.048-2.454-4.215-.5-6.5 2.963-.526 5.463-1.859 7.5-4Z"/><path style="opacity:1" fill="#9ac74c" d="M368.5 674.5a31.684 31.684 0 0 0-2 6c.233 1.432.9 1.932 2 1.5 4.064-6.65 5.064-5.484 3 3.5a7.248 7.248 0 0 0 2 2.5c-.228.399-.562.565-1 .5a5.727 5.727 0 0 0-3-1 2.428 2.428 0 0 0-.5-2c-1.011.837-2.178 1.17-3.5 1-.333-1-1-1.667-2-2l-2-5c.667 0 1-.333 1-1 1.534-1.869 3.534-3.202 6-4Z"/><path style="opacity:.914" fill="#83b735" d="M422.5 674.5c3.36-.71 5.193.624 5.5 4 .837-1.507 2.004-2.007 3.5-1.5 1.165 2.902 2.831 5.402 5 7.5-.182 3.203-1.848 5.036-5 5.5 3.03 4.193 2.03 7.193-3 9-1.566.765-2.899.598-4-.5a2.428 2.428 0 0 0 2-.5c-1.456-2.266-2.29-4.766-2.5-7.5-2.456 4.903-3.456 4.903-3 0l1.5-1.5-5-1c2.518-1.14 2.518-2.306 0-3.5.172-.992-.162-1.658-1-2-.838-.342-1.172-1.008-1-2a92.95 92.95 0 0 0 7-6Z"/><path style="opacity:1" fill="#6f9b31" d="M352.5 683.5a55.546 55.546 0 0 0-12 13c-3.351-10.336.649-14.669 12-13Z"/><path style="opacity:.986" fill="#8abc39" d="M198.5 684.5c3.765.891 5.098 3.057 4 6.5a6.547 6.547 0 0 1 3 3 14.444 14.444 0 0 0-2.5 5.5c-1 1.333-2 1.333-3 0a8.43 8.43 0 0 0-.5 4h-6c-.14-1.624.527-2.79 2-3.5a11.333 11.333 0 0 1-3.5-1.5c.062-2.587-.271-5.254-1-8a12.403 12.403 0 0 0 2.5-4c1.151-1.231 2.317-1.231 3.5 0 .717-.544 1.217-1.211 1.5-2Z"/><path style="opacity:.545" fill="#629630" d="M323.5 677.5c-.492 3.957.175 7.623 2 11a19.887 19.887 0 0 1-3.5 4c-.371 3.533-1.537 6.533-3.5 9a113.327 113.327 0 0 0-6-9.5 11.803 11.803 0 0 1 2-3.5c5.367-.997 7.367-3.997 6-9v-1a5.727 5.727 0 0 0 3-1Z"/><path style="opacity:1" fill="#4f8b2f" d="M365.5 659.5c.262 1.478-.071 2.811-1 4-1.355.688-2.355 1.688-3 3-.647.774-.98 1.774-1 3 .739 5.13 3.073 6.13 7 3l4-1c.438-.065.772.101 1 .5-1.566.608-2.9 1.442-4 2.5-2.466.798-4.466 2.131-6 4-.667 0-1 .333-1 1l2 5c-.438-.065-.772.101-1 .5.744 1.039 1.744 1.539 3 1.5v1c4.182 1.134 7.849 3.3 11 6.5 1.393 1.171 2.227 2.671 2.5 4.5.712-2.938.212-5.604-1.5-8 2.442 1.621 3.775 3.954 4 7-1.525 3.865-3.858 7.198-7 10-1.747 1.928-3.413 4.094-5 6.5-2.674 2.125-5.007 1.958-7-.5h3c-.354-7.313-1.687-14.313-4-21a4.934 4.934 0 0 0-.5-3 12.93 12.93 0 0 0-.5 5v12a40.747 40.747 0 0 1-3 6.5c-2 .667-4 .667-6 0-.556-.383-.889-.883-1-1.5-.693-8.878 1.974-16.711 8-23.5-2.958-.015-5.292 1.319-7 4-1.444.781-2.777.614-4-.5a34.534 34.534 0 0 0 5.5-6c1.756 1.485 2.923 1.152 3.5-1 2.474-.16 1.807-.493-2-1h-2l-6-2h6c-.966-3.256-2.299-6.256-4-9a8.43 8.43 0 0 1 4 .5 55.26 55.26 0 0 1 8 13.5l1-1.5c-4.121-7.672-5.121-15.839-3-24.5-.442-1.239-1.109-2.239-2-3 3.696-1.78 6.696-1.113 9 2Z"/><path style="opacity:.489" fill="#94b842" d="M272.5 695.5h3c2.392 5.465 5.725 6.132 10 2a6.846 6.846 0 0 0 1-4c1.175-.219 2.175.114 3 1-5.216 11.137-10.883 11.471-17 1Z"/><path style="opacity:1" fill="#65962b" d="M365.5 687.5h4a5.727 5.727 0 0 1 3 1c1.419.951 3.085 1.284 5 1v1c1.712 2.396 2.212 5.062 1.5 8-.273-1.829-1.107-3.329-2.5-4.5-3.151-3.2-6.818-5.366-11-6.5Z"/><path style="opacity:1" fill="#9ac64a" d="M417.5 684.5c2.518 1.194 2.518 2.36 0 3.5l5 1-1.5 1.5c-.456 4.903.544 4.903 3 0 .21 2.734 1.044 5.234 2.5 7.5a2.428 2.428 0 0 1-2 .5c-1.491-.401-3.158-.568-5-.5-2.201-1.684-2.867-3.684-2-6-2.144-.792-3.477-2.292-4-4.5.667 0 1-.333 1-1 .473-1.406 1.473-2.073 3-2Z"/><path style="opacity:1" fill="#518d2f" d="M324.5 675.5c2.276.256 3.443 1.59 3.5 4 1.67-2.198 3.67-2.532 6-1a25.741 25.741 0 0 0 3.5 7.5c-.977 2.761-2.977 4.094-6 4 4.668 1.493 5.834 4.326 3.5 8.5-2.362.852-4.195 2.352-5.5 4.5-2.201.825-4.034.325-5.5-1.5-1.855 2.483-3.689 2.483-5.5 0 1.963-2.467 3.129-5.467 3.5-9a19.887 19.887 0 0 0 3.5-4c-1.825-3.377-2.492-7.043-2-11-.172-.992.162-1.658 1-2Z"/><path style="opacity:1" fill="#639630" d="M352.5 683.5h2c.342.838 1.008 1.172 2 1-.577 2.152-1.744 2.485-3.5 1a34.534 34.534 0 0 1-5.5 6c1.223 1.114 2.556 1.281 4 .5 1.708-2.681 4.042-4.015 7-4-6.026 6.789-8.693 14.622-8 23.5a115.838 115.838 0 0 0-10-15 55.546 55.546 0 0 1 12-13Z"/><path style="opacity:.632" fill="#94b842" d="M416.5 682.5c.838.342 1.172 1.008 1 2-1.527-.073-2.527.594-3 2-.667 0-1 .333-1 1a128.59 128.59 0 0 0-26 8.5 72.667 72.667 0 0 0-7 7.5c-.667 0-1 .333-1 1-.838.342-1.172 1.008-1 2-1.517 1.962-2.184 4.295-2 7l.5 5c.671.752 1.504 1.086 2.5 1 .904.709 1.237 1.709 1 3-3.142-.299-5.309-1.966-6.5-5-.659-3.388-.492-6.721.5-10 3.142-2.802 5.475-6.135 7-10 4.139-3.576 8.806-6.409 14-8.5 7.393-1.3 14.393-3.467 21-6.5Z"/><path style="opacity:1" fill="#8cbd3c" d="M429.5 702.5c1.545 1.08 3.045 1.08 4.5 0 2.748.694 3.582 2.194 2.5 4.5 2.724 4.399 1.391 7.233-4 8.5-4.059-.51-6.059-2.844-6-7a17.886 17.886 0 0 0 3-6Z"/><path style="opacity:1" fill="#5f962b" d="M361.5 692.5c2.313 6.687 3.646 13.687 4 21h-3c-1.663-1.938-2.329-4.272-2-7v-12c.838-.342 1.172-1.008 1-2Z"/><path style="opacity:1" fill="#85b933" d="M392.5 726.5h-5v-1c.597-.235.93-.735 1-1.5l-1.5-4.5a19.887 19.887 0 0 0-3.5 4c-1.41-2.449-1.076-4.616 1-6.5-1.049-.492-2.049-.326-3 .5l-1-2a112.72 112.72 0 0 0 3-9l2 3c1.25-2.772 1.583-5.439 1-8 2.675-1.247 4.509-.247 5.5 3 1.049-1.017 2.216-1.184 3.5-.5 2.926 3.926 3.759 8.093 2.5 12.5a9.454 9.454 0 0 1-2.5 1.5c1.076 1.726 1.243 3.559.5 5.5-1.729.474-2.895 1.474-3.5 3Z"/><path style="opacity:.988" fill="#9dc84f" d="M386.5 701.5c.583 2.561.25 5.228-1 8l-2-3a112.72 112.72 0 0 1-3 9l1 2c.951-.826 1.951-.992 3-.5-2.076 1.884-2.41 4.051-1 6.5a19.887 19.887 0 0 1 3.5-4l1.5 4.5c-.07.765-.403 1.265-1 1.5-1.291-.237-2.291.096-3 1h-1c-1.353-1.026-2.353-2.359-3-4 .237-1.291-.096-2.291-1-3-2.965-3.32-2.632-6.153 1-8.5-1.537-1.11-2.203-2.61-2-4.5.838-.342 1.172-1.008 1-2 .667 0 1-.333 1-1 2.358.247 4.358-.419 6-2Z"/></svg>