<svg xmlns="http://www.w3.org/2000/svg" width="900" height="900" style="shape-rendering:geometricPrecision;text-rendering:geometricPrecision;image-rendering:optimizeQuality;fill-rule:evenodd;clip-rule:evenodd"><path style="opacity:1" fill="#fdd7d0" d="M475.5 82.5a400.606 400.606 0 0 0-40 1 457.158 457.158 0 0 0-56 6c6.35-2.307 13.017-3.807 20-4.5 25.407-3.422 50.74-4.255 76-2.5Z"/><path style="opacity:1" fill="#ea4335" d="M435.5 83.5c20.375-.34 40.708.326 61 2a249.26 249.26 0 0 0 18 2 392.05 392.05 0 0 0 26 6h1c2.015 1.424 4.348 2.09 7 2a24.93 24.93 0 0 0 8 1c1.171.845 2.505 1.511 4 2 51.179 16.247 96.179 42.747 135 79.5a7282.72 7282.72 0 0 1-101 102c-.667.667-1.333.667-2 0a108.012 108.012 0 0 0-17-13.5c-15.018-12.344-31.684-21.844-50-28.5-49.766-16.957-99.433-16.624-149 1-9.619 3.476-18.619 7.976-27 13.5-37.242 20.409-66.409 49.075-87.5 86a323.248 323.248 0 0 0-17.5 38 382980.37 382980.37 0 0 0-119-92 198.402 198.402 0 0 0 8-17c1.75-1.159 2.75-2.826 3-5 1.39-1.399 2.39-3.066 3-5a24.766 24.766 0 0 0 5-8 868.055 868.055 0 0 1 30-40c12.333-13 25-25.667 38-38a37768.562 37768.562 0 0 1 38-29 300.45 300.45 0 0 0 25-15c2.174-.25 3.841-1.25 5-3 3.931-.632 7.265-2.299 10-5 3.92-.627 7.253-2.293 10-5h1a1741.423 1741.423 0 0 1 55-20h1a51.648 51.648 0 0 0 7-1c2.652.09 4.985-.576 7-2 2.567-.222 4.901-.888 7-2h1a457.158 457.158 0 0 1 56-6Z"/><path style="opacity:.525" fill="#f9aca1" d="M435.5 83.5a400.606 400.606 0 0 1 40-1c7.075.083 14.075.75 21 2v1a616.272 616.272 0 0 0-61-2Z"/><path style="opacity:.137" fill="#fce1dc" d="M496.5 85.5v-1c7.567.255 14.9 1.255 22 3h-4a249.26 249.26 0 0 1-18-2Z"/><path style="opacity:1" fill="#fdbeb6" d="M514.5 87.5h4a164.89 164.89 0 0 1 19 4l3 2a392.05 392.05 0 0 1-26-6Z"/><path style="opacity:.953" fill="#fcdad4" d="M378.5 89.5c-2.099 1.112-4.433 1.778-7 2h-2c2.623-1.766 5.623-2.432 9-2Z"/><path style="opacity:.098" fill="#fef3ee" d="M537.5 91.5c2.995-.206 5.662.46 8 2h-5l-3-2Z"/><path style="opacity:.431" fill="#fdeae4" d="m367.5 91.5-3 2a51.648 51.648 0 0 1-7 1c2.881-2.18 6.214-3.18 10-3Z"/><path style="opacity:1" fill="#f88b81" d="M367.5 91.5h4c-2.015 1.424-4.348 2.09-7 2l3-2Z"/><path style="opacity:.918" fill="#f99b91" d="M541.5 93.5h4c1.291-.237 2.291.096 3 1v1c-2.652.09-4.985-.576-7-2Z"/><path style="opacity:.431" fill="#fde4de" d="M548.5 95.5v-1c2.995-.206 5.662.46 8 2a24.93 24.93 0 0 1-8-1Z"/><path style="opacity:.027" fill="#fcf2f0" d="M556.5 96.5c2.652-.09 4.985.576 7 2h-3c-1.495-.489-2.829-1.155-4-2Z"/><path style="opacity:.178" fill="#fdd6d1" d="M356.5 94.5a1741.423 1741.423 0 0 0-55 20c17.354-9.169 35.688-15.835 55-20Z"/><path style="opacity:.588" fill="#fde2de" d="M300.5 114.5c-2.747 2.707-6.08 4.373-10 5 2.916-2.422 6.249-4.088 10-5Z"/><path style="opacity:.278" fill="#fbddd8" d="M290.5 119.5c-2.735 2.701-6.069 4.368-10 5 2.747-2.707 6.08-4.373 10-5Z"/><path style="opacity:.588" fill="#fce7e2" d="M280.5 124.5c-1.159 1.75-2.826 2.75-5 3 .901-2.227 2.567-3.227 5-3Z"/><path style="opacity:.588" fill="#fdddd8" d="M275.5 127.5a300.45 300.45 0 0 1-25 15 69.174 69.174 0 0 1 13-9.5 95.225 95.225 0 0 1 12-5.5Z"/><path style="opacity:.875" fill="#fde2df" d="M250.5 142.5a37768.562 37768.562 0 0 0-38 29c.752-1.6 1.752-3.1 3-4.5a762.063 762.063 0 0 1 30-22.5 16.076 16.076 0 0 1 5-2Z"/><path style="opacity:.863" fill="#fbdbd6" d="M212.5 171.5c-13 12.333-25.667 25-38 38 6.21-8.553 13.21-16.553 21-24 5.123-5.469 10.79-10.135 17-14Z"/><path style="opacity:.592" fill="#ffe6e2" d="M560.5 98.5h3c26.734 8.182 52.067 19.348 76 33.5a735.157 735.157 0 0 1 42 30 150.858 150.858 0 0 1 17 16.5l-103 103c-1.333 1.333-2.667 1.333-4 0a140.323 140.323 0 0 0-15-13l-1-2a108.012 108.012 0 0 1 17 13.5c.667.667 1.333.667 2 0a7282.72 7282.72 0 0 0 101-102c-38.821-36.753-83.821-63.253-135-79.5Z"/><path style="opacity:.69" fill="#fde2de" d="M174.5 209.5a868.055 868.055 0 0 0-30 40 73.181 73.181 0 0 1 8-14 446.639 446.639 0 0 1 15.5-20c2.083-2.256 4.25-4.256 6.5-6Z"/><path style="opacity:.431" fill="#fee3df" d="M575.5 266.5c-4.403-1.71-8.403-4.21-12-7.5-29.992-18.831-62.659-29.331-98-31.5-4.134-.985-8.468-1.318-13-1a31.684 31.684 0 0 1-6 2 51.991 51.991 0 0 0-9-1c-30.629 2.554-59.296 10.887-86 25h-2c8.381-5.524 17.381-10.024 27-13.5 49.567-17.624 99.234-17.957 149-1 18.316 6.656 34.982 16.156 50 28.5Z"/><path style="opacity:.229" fill="#fdfbf9" d="M452.5 226.5c4.532-.318 8.866.015 13 1-4.166.946-8.5.613-13-1Z"/><path style="opacity:.094" fill="#fde8e6" d="M144.5 249.5a24.766 24.766 0 0 1-5 8c.82-2.312 1.653-4.646 2.5-7 .671-.752 1.504-1.086 2.5-1Z"/><path style="opacity:.875" fill="#fbe3df" d="M139.5 257.5c-.61 1.934-1.61 3.601-3 5-.227-2.433.773-4.099 3-5Z"/><path style="opacity:.076" fill="#fee5e2" d="M136.5 262.5c-.25 2.174-1.25 3.841-3 5 .092-2.348 1.092-4.014 3-5Z"/><path style="opacity:.004" fill="#fefefe" d="M576.5 268.5c-.667.667-.667.667 0 0Z"/><path style="opacity:.435" fill="#fde2dc" d="M133.5 267.5a198.402 198.402 0 0 1-8 17h-1c1.56-6.496 4.56-12.163 9-17Z"/><path style="opacity:1" fill="#fabc06" d="M124.5 284.5h1a382980.37 382980.37 0 0 1 119 92l-2 9c-2.581 3.084-3.581 6.75-3 11-7.463 32.526-7.963 65.192-1.5 98a370.39 370.39 0 0 1 6.5 26 12348.001 12348.001 0 0 0-119 92c-.667 0-1-.333-1-1a995.261 995.261 0 0 0-15-33c-.76-5.072-2.427-9.739-5-14 .085-3.149-.915-5.816-3-8 .389-3.053-.277-5.72-2-8a238.413 238.413 0 0 0-8-33v-2c-.039-4.233-.705-8.233-2-12v-1a128.416 128.416 0 0 0-2-21 524.564 524.564 0 0 1 0-62c.416-4.993.75-9.993 1-15a41.742 41.742 0 0 1 1-9c2.49-8.044 4.156-16.378 5-25v-1c1.723-2.28 2.39-4.947 2-8 2.105-2.908 3.105-6.242 3-10v-1c2.269-5.053 3.935-10.387 5-16 1.574-1.602 2.241-3.602 2-6v-1c3.486-5.441 5.819-11.441 7-18 2.988-2.981 4.654-6.648 5-11-.172-.992.162-1.658 1-2 .904-.709 1.237-1.709 1-3 1.604-.787 2.271-2.12 2-4 1.406-.473 2.073-1.473 2-3Z"/><path style="opacity:.302" fill="#fdf7e7" d="M124.5 284.5c.073 1.527-.594 2.527-2 3-.073-1.527.594-2.527 2-3Z"/><path style="opacity:.435" fill="#fbf6ea" d="M122.5 287.5c.271 1.88-.396 3.213-2 4 .16-1.653.826-2.986 2-4Z"/><path style="opacity:.139" fill="#fefaf2" d="M120.5 291.5c.237 1.291-.096 2.291-1 3-1.315-1.395-.981-2.395 1-3Z"/><path style="opacity:1" fill="#fff2ce" d="M118.5 296.5c-.346 4.352-2.012 8.019-5 11-.028-2.082.639-3.916 2-5.5l-1-1c1.693-1.25 3.027-2.75 4-4.5Z"/><path style="opacity:.059" fill="#feeeea" d="M349.5 252.5h2c-28.139 15.912-52.306 36.912-72.5 63-8.43 13.085-16.096 25.752-23 38-4.306 10.078-8.139 19.912-11.5 29.5.714 1.343.38 2.676-1 4v5c-1.894 1.079-2.227 2.413-1 4a2.428 2.428 0 0 1-2 .5 49.299 49.299 0 0 1 2-11l2-9a323.248 323.248 0 0 1 17.5-38c21.091-36.925 50.258-65.591 87.5-86Z"/><path style="opacity:1" fill="#fff0cc" d="M113.5 307.5c-1.181 6.559-3.514 12.559-7 18-.438.065-.772-.101-1-.5a1208.808 1208.808 0 0 0 8-17.5Z"/><path style="opacity:1" fill="#ffecbf" d="M106.5 326.5c.241 2.398-.426 4.398-2 6 .17-1.322-.163-2.489-1-3.5 1.191-.698 2.191-1.531 3-2.5Z"/><path style="opacity:.953" fill="#feecbf" d="M104.5 332.5c-1.065 5.613-2.731 10.947-5 16 .45-5.824 2.116-11.158 5-16Z"/><path style="opacity:.859" fill="#ffeaba" d="M99.5 349.5c.105 3.758-.895 7.092-3 10 .086-.996-.248-1.829-1-2.5a89.945 89.945 0 0 1 4-7.5Z"/><path style="opacity:.137" fill="#fdf0d0" d="M96.5 359.5c.39 3.053-.277 5.72-2 8 .065-2.928.732-5.595 2-8Z"/><path style="opacity:1" fill="#bed6fe" d="M796.5 379.5v1h-345c56.996-1.333 114.329-2 172-2 57.737.002 115.403.335 173 1Z"/><path style="opacity:.702" fill="#6fa2f6" d="M451.5 380.5h1c-.328 47.405.005 94.739 1 142h-2v-142Z"/><path style="opacity:1" fill="#4285f4" d="M452.5 380.5h344c6.228 39.781 7.728 79.781 4.5 120a5487.971 5487.971 0 0 0-5.5 39c-1.268 2.405-1.935 5.072-2 8-14.853 69.73-47.853 129.064-99 178a7540.44 7540.44 0 0 1-115-89c2.813-3.967 6.479-7.134 11-9.5 1.641-1.129 2.641-2.629 3-4.5h1c11.158-8.153 20.158-18.153 27-30 2.958-2.56 5.458-5.56 7.5-9 9.645-16.079 16.478-33.412 20.5-52 .975-2.811 1.642-5.811 2-9h-198a5077.105 5077.105 0 0 1-1-142Z"/><path style="opacity:.424" fill="#fee9b9" d="M94.5 368.5c-.844 8.622-2.51 16.956-5 25a72.676 72.676 0 0 1 3-17.5l-1-1a40.66 40.66 0 0 0 3-6.5Z"/><path style="opacity:1" fill="#ffd35b" d="M242.5 385.5a49.299 49.299 0 0 0-2 11h-1c-.581-4.25.419-7.916 3-11Z"/><path style="opacity:.492" fill="#fdf3e7" d="M88.5 402.5a455.585 455.585 0 0 1-1 15h-1c-.438.065-.772-.101-1-.5a164.881 164.881 0 0 1 3-14.5Z"/><path style="opacity:.424" fill="#ffdd80" d="M86.5 417.5h1a524.564 524.564 0 0 0 0 62h-1a211.623 211.623 0 0 0-2-20.5c-.026-13.665.64-27.498 2-41.5Z"/><path style="opacity:.996" fill="#e5eefd" d="M796.5 379.5c1.52 4.38 3.187 8.547 5 12.5a72.929 72.929 0 0 0-1 8c1.838 6.11 3.172 12.11 4 18-.145 2.458-.478 5.292-1 8.5a418.502 418.502 0 0 1 1.5 21c.374.916.874 1.75 1.5 2.5v12a11.333 11.333 0 0 0-1.5 3.5 596.82 596.82 0 0 1-1.5 23c.915 3.625 1.248 6.791 1 9.5a231.996 231.996 0 0 0-4 17c.674 1.751 1.007 3.417 1 5a1683.821 1683.821 0 0 1-6 24.5v-5a5487.971 5487.971 0 0 1 5.5-39c3.228-40.219 1.728-80.219-4.5-120v-1Z"/><path style="opacity:.275" fill="#fee7bd" d="M86.5 479.5h1a128.416 128.416 0 0 1 2 21 385.536 385.536 0 0 1-4-19.5c.556-.383.89-.883 1-1.5Z"/><path style="opacity:.149" fill="#fdf2d7" d="M89.5 501.5c1.295 3.767 1.961 7.767 2 12-.767-.672-1.434-1.505-2-2.5.178-2.955.178-6.121 0-9.5Z"/><path style="opacity:.261" fill="#f8f6e7" d="M239.5 396.5h1a129.192 129.192 0 0 1-3 17.5 3.943 3.943 0 0 0 1 2 25.648 25.648 0 0 0-2.5 7.5c-.426 8.338-.926 16.671-1.5 25a75.901 75.901 0 0 0 2 15.5c-1.122 3.409-1.289 6.909-.5 10.5 1.756.921 1.923 2.088.5 3.5.786 4.949 2.119 9.616 4 14a3.943 3.943 0 0 0-1 2c2.799 8.385 4.966 16.552 6.5 24.5a1148.808 1148.808 0 0 1 9.5 25 166.022 166.022 0 0 1-11-23 370.39 370.39 0 0 0-6.5-26c-6.463-32.808-5.963-65.474 1.5-98Z"/><path style="opacity:1" fill="#34a853" d="M244.5 520.5a166.022 166.022 0 0 0 11 23c-.039 2.589.961 4.589 3 6a115.33 115.33 0 0 0 11.5 22 73.9 73.9 0 0 0 10.5 13c27.68 37.144 63.68 62.977 108 77.5a47.11 47.11 0 0 0 12 2.5h1a26.335 26.335 0 0 0 5 2c2.719 1.413 5.719 2.08 9 2h8c2.121-.175 4.121.159 6 1 23.941 2.754 47.941 1.921 72-2.5 2.352-.24 4.352-1.073 6-2.5h2c17.508-3.53 34.175-9.364 50-17.5 2.247-1.277 4.247-2.777 6-4.5 2.174-.25 3.841-1.25 5-3 2.672-.448 4.672-1.781 6-4a5.727 5.727 0 0 1 3 1 7540.44 7540.44 0 0 0 115 89 6.547 6.547 0 0 1-3 3c-60.046 51.308-129.713 79.475-209 84.5-42.332 3.36-83.999-.307-125-11l-50-16.5c-5.215-3.439-10.882-6.105-17-8-2.747-2.707-6.08-4.373-10-5-.787-1.604-2.12-2.271-4-2a392.86 392.86 0 0 0-32-20 315.835 315.835 0 0 0-24-18c-2.069-3.073-4.736-5.406-8-7-10.307-9.973-20.64-19.973-31-30a1020.143 1020.143 0 0 1-37-48 883.062 883.062 0 0 1-19-35 12348.001 12348.001 0 0 1 119-92Z"/><path style="opacity:.722" fill="#bfd5fb" d="M451.5 522.5h200c-.358 3.189-1.025 6.189-2 9v-2c.239-1.967-.094-3.801-1-5.5a6320.13 6320.13 0 0 0-194.5.5c-.995-.566-1.828-1.233-2.5-2Z"/><path style="opacity:.592" fill="#ffebbb" d="M91.5 515.5a238.413 238.413 0 0 1 8 33 83.535 83.535 0 0 0-4-7.5 3.942 3.942 0 0 0 1-2 180.58 180.58 0 0 1-5-23.5Z"/><path style="opacity:.765" fill="#e3f3e7" d="M255.5 543.5c1.846 1.53 2.846 3.53 3 6-2.039-1.411-3.039-3.411-3-6Z"/><path style="opacity:1" fill="#afcdfe" d="M795.5 539.5v5l-2 3c.065-2.928.732-5.595 2-8Z"/><path style="opacity:.12" fill="#fdf5e7" d="M99.5 548.5c1.723 2.28 2.389 4.947 2 8-.789-.283-1.456-.783-2-1.5.486-2.027.486-4.193 0-6.5Z"/><path style="opacity:1" fill="#cfdffb" d="M649.5 529.5v2c-4.022 18.588-10.855 35.921-20.5 52-2.042 3.44-4.542 6.44-7.5 9 4.826-8.316 9.659-16.649 14.5-25 .617-.949.451-1.782-.5-2.5 2.472-1.601 3.472-3.601 3-6 1.941-1.816 2.608-3.816 2-6a20.499 20.499 0 0 1 2.5-3.5 5020.167 5020.167 0 0 1 6.5-20Z"/><path style="opacity:.431" fill="#fff1ce" d="M101.5 556.5c2.085 2.184 3.085 4.851 3 8-1.767-2.292-2.767-4.958-3-8Z"/><path style="opacity:.157" fill="#eef7ef" d="M258.5 549.5a12960.92 12960.92 0 0 1 22 35 73.9 73.9 0 0 1-10.5-13 115.33 115.33 0 0 1-11.5-22Z"/><path style="opacity:.988" fill="#fff0c7" d="M104.5 564.5c2.573 4.261 4.24 8.928 5 14-2.573-4.261-4.24-8.928-5-14Z"/><path style="opacity:.108" fill="#fef4d9" d="M109.5 578.5a995.261 995.261 0 0 1 15 33h-1a143.89 143.89 0 0 1-14-33Z"/><path style="opacity:.647" fill="#e0eafb" d="M621.5 592.5c-6.842 11.847-15.842 21.847-27 30l27-30Z"/><path style="opacity:.765" fill="#e0f2e4" d="M280.5 584.5c23.066 28.215 51.066 50.382 84 66.5a756.492 756.492 0 0 0 36 13.5 47.11 47.11 0 0 1-12-2.5c-44.32-14.523-80.32-40.356-108-77.5Z"/><path style="opacity:.482" fill="#dce8fb" d="M593.5 622.5c-.359 1.871-1.359 3.371-3 4.5-4.521 2.366-8.187 5.533-11 9.5a5.727 5.727 0 0 0-3-1 262.513 262.513 0 0 1 17-13Z"/><path style="opacity:.288" fill="#e9f1fc" d="M795.5 544.5c.111.617.444 1.117 1 1.5-1.983 3.895-2.649 7.895-2 12a31.041 31.041 0 0 0-4 8c-9.438 39.238-26.105 75.571-50 109-13.712 20.25-30.046 38.75-49 55.5v-2a6.547 6.547 0 0 0 3-3c51.147-48.936 84.147-108.27 99-178l2-3Z"/><path style="opacity:.667" fill="#e0f2e4" d="M123.5 611.5h1c0 .667.333 1 1 1a883.062 883.062 0 0 0 19 35 25.14 25.14 0 0 1-4.5-4c-5.041-10.314-10.541-19.814-16.5-28.5.671-.986.671-2.153 0-3.5Z"/><path style="opacity:.431" fill="#def1e5" d="M576.5 635.5c-1.328 2.219-3.328 3.552-6 4 1.45-2.11 3.45-3.443 6-4Z"/><path style="opacity:.182" fill="#f0f8f2" d="M570.5 639.5c-1.159 1.75-2.826 2.75-5 3 1.159-1.75 2.826-2.75 5-3Z"/><path style="opacity:.839" fill="#d7eedc" d="M565.5 642.5c-1.753 1.723-3.753 3.223-6 4.5-15.825 8.136-32.492 13.97-50 17.5 19.15-5.802 37.816-13.135 56-22Z"/><path style="opacity:.137" fill="#e2f3e6" d="M144.5 647.5a1020.143 1020.143 0 0 0 37 48 4.934 4.934 0 0 1-3-.5l1-1a192.77 192.77 0 0 1-19-21.5 587.861 587.861 0 0 0-17-23.5c.556-.383.889-.883 1-1.5Z"/><path style="opacity:.114" fill="#ebf5ec" d="M401.5 664.5c3.622-.178 6.956.489 10 2h-5a26.335 26.335 0 0 1-5-2Z"/><path style="opacity:.105" fill="#f4f4eb" d="M412.5 666.5c3.887.146 7.554.813 11 2h-8l-3-2Z"/><path style="opacity:.745" fill="#d6eedb" d="M507.5 664.5c-1.648 1.427-3.648 2.26-6 2.5-24.059 4.421-48.059 5.254-72 2.5 26.24 1.269 52.24-.397 78-5Z"/><path style="opacity:1" fill="#88cf9a" d="M406.5 666.5h6l3 2c-3.281.08-6.281-.587-9-2Z"/><path style="opacity:.239" fill="#e6f4e9" d="M181.5 695.5c10.36 10.027 20.693 20.027 31 30a418.408 418.408 0 0 1-9-6 368.41 368.41 0 0 1-22-24Z"/><path style="opacity:.004" fill="#ebf6ed" d="M212.5 725.5c3.264 1.594 5.931 3.927 8 7a30.137 30.137 0 0 1-6-3.5c-1.323-.816-1.989-1.983-2-3.5Z"/><path style="opacity:.004" fill="#fefefe" d="M676.5 743.5c1.333.667 1.333.667 0 0Z"/><path style="opacity:.178" fill="#e6f4e9" d="M220.5 732.5a315.835 315.835 0 0 1 24 18l-7-3.5c-6.197-4.376-11.864-9.209-17-14.5Z"/><path style="opacity:.122" fill="#e7f4e9" d="M244.5 750.5a392.86 392.86 0 0 1 32 20c-10.557-4.729-20.89-10.729-31-18-.798-.457-1.131-1.124-1-2Z"/><path style="opacity:.178" fill="#f4f9f5" d="M276.5 770.5c1.88-.271 3.213.396 4 2-1.88.271-3.213-.396-4-2Z"/><path style="opacity:.118" fill="#e8f5eb" d="M280.5 772.5c3.92.627 7.253 2.293 10 5-4.068-.489-7.402-2.156-10-5Z"/><path style="opacity:.091" fill="#ebf6ed" d="M290.5 777.5c6.118 1.895 11.785 4.561 17 8-4.42-.414-8.254-2.081-11.5-5-2.503.738-4.337-.262-5.5-3Z"/><path style="opacity:.065" fill="#e1f3e5" d="M691.5 728.5v2c-3.214 4.38-7.214 7.88-12 10.5.84 1.666.34 1.833-1.5.5-.717.544-1.217 1.211-1.5 2a121.64 121.64 0 0 0-16.5 13l-1-1a4.934 4.934 0 0 0-.5 3c-4.038.52-7.372 2.353-10 5.5-24.203 13.919-49.203 25.253-75 34l-13 3c.84 1.666.34 1.833-1.5.5a154.668 154.668 0 0 0-14 5c-1.398-.551-2.732-.884-4-1-6.835 1.96-13.668 3.96-20.5 6-2.088-.679-4.088-1.012-6-1a149.84 149.84 0 0 1-24 4 667.74 667.74 0 0 0-12.5 0l-2 2c-12-1.333-24-1.333-36 0-3.8-.699-7.633-1.365-11.5-2-1.912-.012-3.912.321-6 1-3.716-2.112-7.549-2.445-11.5-1-9.177-2.602-18.344-4.102-27.5-4.5a359.488 359.488 0 0 1-74.5-23.5c-1.107 1.212-1.607.879-1.5-1l50 16.5c41.001 10.693 82.668 14.36 125 11 79.287-5.025 148.954-33.192 209-84.5Z"/></svg>