<svg xmlns="http://www.w3.org/2000/svg" width="474" height="500" style="shape-rendering:geometricPrecision;text-rendering:geometricPrecision;image-rendering:optimizeQuality;fill-rule:evenodd;clip-rule:evenodd"><path style="opacity:.998" fill="#73bf45" d="M251.5 80.5c-2.082.028-3.916-.639-5.5-2-28.739.683-55.405 8.35-80 23-.186-2.536-.686-4.869-1.5-7 3.207-16.577 11.207-30.41 24-41.5 11.817-7.404 23.483-7.07 35 1l11 9a140.853 140.853 0 0 0 17 17.5Z"/><path style="opacity:1" fill="#57b647" d="M332.5 84.5a8.435 8.435 0 0 1-4-.5c-15.389-10.298-32.056-17.798-50-22.5 16.351-11.83 31.184-10.163 44.5 5a77.517 77.517 0 0 1 9.5 18Z"/><path style="opacity:.998" fill="#4db547" d="M278.5 61.5c17.944 4.702 34.611 12.202 50 22.5a8.435 8.435 0 0 0 4 .5 49.915 49.915 0 0 1 4 15c-.826 4.816-1.326 9.816-1.5 15l-1-9c-20.566-17.864-44.399-28.531-71.5-32a108.123 108.123 0 0 1 16-12Z"/><path style="opacity:1" fill="#48b549" d="M262.5 73.5c27.101 3.469 50.934 14.136 71.5 32l1 9c.174-5.184.674-10.184 1.5-15 1.237 7.094.904 14.094-1 21-15-13.841-32-24.675-51-32.5a776.585 776.585 0 0 0-31-6.5 71.015 71.015 0 0 1-2 4v-5a59.616 59.616 0 0 0 11-7Z"/><path style="opacity:1" fill="#6dbd45" d="M251.5 80.5v5c-.869 2.217-1.202 4.55-1 7-5.378-2.042-11.045-2.542-17-1.5-22.839 1.287-43.839 7.954-63 20l1 1c-2.76 1.179-4.76 3.012-6 5.5-2.172-7.461-2.506-15.127-1-23 .814 2.131 1.314 4.464 1.5 7 24.595-14.65 51.261-22.317 80-23 1.584 1.361 3.418 2.028 5.5 2Z"/><path style="opacity:1" fill="#65bb45" d="M250.5 92.5c.175 2.12-.159 4.12-1 6-12.177-1.644-24.177-.644-36 3-16.322 3.395-31.489 10.395-45.5 21l-1-2c-.399.228-.565.562-.5 1-.934-1.068-1.268-2.401-1-4 1.24-2.488 3.24-4.321 6-5.5l-1-1c19.161-12.046 40.161-18.713 63-20 5.955-1.042 11.622-.542 17 1.5Z"/><path style="opacity:1" fill="#3db249" d="M335.5 120.5c-2.087 9.957-6.087 18.957-12 27-1.871-.359-3.371-1.359-4.5-3-1.564-3.346-3.731-6.179-6.5-8.5l-9.5-7.5-1 1-3-5a1224.053 1224.053 0 0 0-23.5-10.5 89.784 89.784 0 0 0-26-4.5v-11c.841-1.88 1.175-3.88 1-6-.202-2.45.131-4.783 1-7a71.015 71.015 0 0 0 2-4 776.585 776.585 0 0 1 31 6.5c19 7.825 36 18.659 51 32.5Z"/><path style="opacity:1" fill="#5aba47" d="M249.5 98.5v11a72.032 72.032 0 0 1-1 11c-27.059-1.976-51.392 5.524-73 22.5.752.671 1.086 1.504 1 2.5-3.249-4.159-5.749-8.826-7.5-14a33.546 33.546 0 0 1-2.5-10c-.065-.438.101-.772.5-1l1 2c14.011-10.605 29.178-17.605 45.5-21 11.823-3.644 23.823-4.644 36-3Z"/><path style="opacity:1" fill="#31b14a" d="M249.5 109.5a89.784 89.784 0 0 1 26 4.5 1224.053 1224.053 0 0 1 23.5 10.5l3 5 1-1 9.5 7.5c2.769 2.321 4.936 5.154 6.5 8.5 1.129 1.641 2.629 2.641 4.5 3-3.527 6.864-8.194 12.864-14 18 .03-.997-.47-1.664-1.5-2-.253 1.035-1.086 2.035-2.5 3-14.472-20.222-33.805-30.889-58-32a82.73 82.73 0 0 1 1-14 72.032 72.032 0 0 0 1-11Z"/><path style="opacity:.999" fill="#6dba46" d="M154.5 140.5c-4.164-.357-7.331 1.31-9.5 5a159.87 159.87 0 0 0-19 28c-4.031 10.338-7.864 21.172-11.5 32.5a3.943 3.943 0 0 1 1 2 33.74 33.74 0 0 0-2 10.5h-5a176.639 176.639 0 0 0-20-7c0-.667-.333-1-1-1a99.52 99.52 0 0 0-11.5-20c-6.9-10.356-9.9-21.689-9-34 4.115-10.782 11.615-18.282 22.5-22.5 22.955-9.129 44.621-6.962 65 6.5Z"/><path style="opacity:.998" fill="#4ab748" d="M248.5 120.5a82.73 82.73 0 0 0-1 14v2c-.773 2.049-2.273 3.383-4.5 4-10.653-.543-21.153 1.291-31.5 5.5-2.167.833-3.667 2.333-4.5 4.5a4.457 4.457 0 0 0-1.5-2c-7.132 3.443-13.465 7.777-19 13a98.385 98.385 0 0 1-10-16c.086-.996-.248-1.829-1-2.5 21.608-16.976 45.941-24.476 73-22.5Z"/><path style="opacity:1" fill="#29af4a" d="M309.5 165.5c-4.979 6.979-10.979 12.979-18 18l-1.5-3c-1.84 1.333-2.34 1.166-1.5-.5l-14-14c-8.728-5.863-18.395-9.029-29-9.5.607-6.675 1.273-13.342 2-20v-2c24.195 1.111 43.528 11.778 58 32 1.414-.965 2.247-1.965 2.5-3 1.03.336 1.53 1.003 1.5 2Z"/><path style="opacity:.999" fill="#66b945" d="M154.5 140.5c2.254.624 3.921 1.957 5 4-19.174 19.498-31.507 42.998-37 70.5a91.187 91.187 0 0 1 1 6.5c-3.671-.257-7.005-1.257-10-3a33.74 33.74 0 0 1 2-10.5 3.943 3.943 0 0 0-1-2c3.636-11.328 7.469-22.162 11.5-32.5a159.87 159.87 0 0 1 19-28c2.169-3.69 5.336-5.357 9.5-5Z"/><path style="opacity:1" fill="#3eb54a" d="M247.5 136.5a1112.088 1112.088 0 0 0-2 20 126.86 126.86 0 0 0-2 11c-13.653 1.062-26.153 5.395-37.5 13-2.654-1.321-4.654-3.321-6-6a2.428 2.428 0 0 0-.5 2 71.61 71.61 0 0 1-13-15c5.535-5.223 11.868-9.557 19-13a4.457 4.457 0 0 1 1.5 2c.833-2.167 2.333-3.667 4.5-4.5 10.347-4.209 20.847-6.043 31.5-5.5 2.227-.617 3.727-1.951 4.5-4Z"/><path style="opacity:.998" fill="#5cb746" d="M159.5 144.5a53.59 53.59 0 0 1 13 11 49.598 49.598 0 0 1-6-1.5c-11.125 10.799-19.459 23.466-25 38-3.99 10.303-6.657 20.636-8 31 .916.278 1.582.778 2 1.5h-3a45.733 45.733 0 0 1-9-3 91.187 91.187 0 0 0-1-6.5c5.493-27.502 17.826-51.002 37-70.5Z"/><path style="opacity:.999" fill="#4eb848" d="M367.5 151.5a4.934 4.934 0 0 1 3 .5l-1 1c20.918 23.099 30.918 50.099 30 81a2.428 2.428 0 0 0 2 .5v2a71.194 71.194 0 0 1-9 3c-1.748-17.321-5.581-34.321-11.5-51-5.416-12.873-13.249-23.873-23.5-33a37.138 37.138 0 0 0-4.5 2c-.278-.916-.778-1.582-1.5-2 4.922-2.564 10.255-3.897 16-4Z"/><path style="opacity:1" fill="#55b647" d="M172.5 155.5c2 1.333 3.667 3 5 5-2.189-.293-4.189-.793-6-1.5-18.724 18.605-29.391 40.772-32 66.5-1.599.268-2.932-.066-4-1-.418-.722-1.084-1.222-2-1.5 1.343-10.364 4.01-20.697 8-31 5.541-14.534 13.875-27.201 25-38 1.85.595 3.85 1.095 6 1.5Z"/><path style="opacity:1" fill="#58ba47" d="M367.5 151.5c7.603-1.382 15.27-1.048 23 1a8.43 8.43 0 0 0 .5 4 154.664 154.664 0 0 1 17 33 438.418 438.418 0 0 0 7.5 29 159.115 159.115 0 0 1-14 16 2.428 2.428 0 0 1-2-.5c.918-30.901-9.082-57.901-30-81l1-1a4.934 4.934 0 0 0-3-.5Z"/><path style="opacity:1" fill="#47b748" d="M351.5 155.5c.722.418 1.222 1.084 1.5 2a37.138 37.138 0 0 1 4.5-2c10.251 9.127 18.084 20.127 23.5 33 5.919 16.679 9.752 33.679 11.5 51a78.47 78.47 0 0 1-10 2c-1.419-.951-3.085-1.284-5-1 .889-26.173-6.611-49.84-22.5-71a57.508 57.508 0 0 1-9-9 4.934 4.934 0 0 1-.5-3c1.797-1.23 3.797-1.896 6-2Z"/><path style="opacity:1" fill="#64bc46" d="M390.5 152.5c15.751 4.114 28.251 12.78 37.5 26 3.619 10.59 2.286 20.59-4 30a86.253 86.253 0 0 1-8.5 10 438.418 438.418 0 0 1-7.5-29 154.664 154.664 0 0 0-17-33 8.43 8.43 0 0 1-.5-4Z"/><path style="opacity:1" fill="#49b548" d="m177.5 160.5 5 6c-.429 1.453-.596 3.119-.5 5-16.134 15.877-24.634 35.21-25.5 58h-1a70.3 70.3 0 0 1-16-4c2.609-25.728 13.276-47.895 32-66.5 1.811.707 3.811 1.207 6 1.5Z"/><path style="opacity:1" fill="#1fac4b" d="M245.5 156.5c10.605.471 20.272 3.637 29 9.5l14 14c-.84 1.666-.34 1.833 1.5.5l1.5 3c-9.415 6.823-18.249 14.489-26.5 23a131.29 131.29 0 0 0-10.5 19c.124.607.457.94 1 1-.06.543-.393.876-1 1l-2-2c-2.306 2.985-5.306 4.652-9 5-5.208-14.681-6.208-29.681-3-45a126.699 126.699 0 0 0 3-18 126.86 126.86 0 0 1 2-11Z"/><path style="opacity:1" fill="#3db54a" d="M345.5 157.5a4.934 4.934 0 0 0 .5 3 57.508 57.508 0 0 0 9 9c15.889 21.16 23.389 44.827 22.5 71 1.915-.284 3.581.049 5 1a128.427 128.427 0 0 1-21 2h-5c-1.109-.79-2.442-1.29-4-1.5 2.109-25.811-6.225-47.811-25-66a6.978 6.978 0 0 1-3.5-2.5c-1.145 1.184-2.312 1.184-3.5 0 7.449-6.567 15.782-11.9 25-16Z"/><path style="opacity:1" fill="#32b44c" d="M243.5 167.5a126.699 126.699 0 0 1-3 18 73.631 73.631 0 0 0-20 8l-1 1.5a19.953 19.953 0 0 0 3 4.5c-.363.683-.696 1.35-1 2-7.327-8.328-14.66-16.661-22-25a2.428 2.428 0 0 1 .5-2c1.346 2.679 3.346 4.679 6 6 11.347-7.605 23.847-11.938 37.5-13Z"/><path style="opacity:1" fill="#3eb24a" d="M182.5 166.5a294.54 294.54 0 0 1 14 19 17.64 17.64 0 0 0-6.5 4c-5.887 8.059-10.387 17.226-13.5 27.5.597 1.628.263 3.295-1 5a3.943 3.943 0 0 1 1 2 31.625 31.625 0 0 0-2 7.5 106.228 106.228 0 0 1-18-2c.866-22.79 9.366-42.123 25.5-58-.096-1.881.071-3.547.5-5Z"/><path style="opacity:1" fill="#31b34b" d="M320.5 173.5c1.188 1.184 2.355 1.184 3.5 0a6.978 6.978 0 0 0 3.5 2.5c18.775 18.189 27.109 40.189 25 66 1.558.21 2.891.71 4 1.5h-31c-.667 0-1-.333-1-1a12.93 12.93 0 0 0 5-.5 4.934 4.934 0 0 0-3-.5c1.5-20.494-5.833-36.994-22-49.5-1.576.152-2.909.985-4 2.5a43.836 43.836 0 0 0-2-1 121.137 121.137 0 0 1 22-20Z"/><path style="opacity:.999" fill="#2aaf4a" d="M200.5 192.5a85.328 85.328 0 0 0 13 18c-2.625.966-2.625 1.966 0 3-1.64 3.789-3.64 7.289-6 10.5.433 3.622.599 7.456.5 11.5a79.547 79.547 0 0 0-17.5-1c-.461 6.859.372 13.526 2.5 20 .74 1.819 1.907 3.152 3.5 4a4226.507 4226.507 0 0 1-16 13c-6.652-10.924-9.819-23.258-9.5-37 1.698-1.233 3.698-1.9 6-2 2.094.036 4.094.369 6 1a16.2 16.2 0 0 0 1.5-3.5c-1.369-4.22-1.202-8.387.5-12.5l1 3c.576-1.877.409-3.711-.5-5.5a16.2 16.2 0 0 1 1.5-3.5c.654 1.196 1.154 1.196 1.5 0 .082-4.858 1.915-9.191 5.5-13l1 1a59.425 59.425 0 0 1 5.5-7Z"/><path style="opacity:1" fill="#25b14b" d="M240.5 185.5c-3.208 15.319-2.208 30.319 3 45 3.694-.348 6.694-2.015 9-5l2 2c.607-.124.94-.457 1-1a82.386 82.386 0 0 0 24-12.5 182.818 182.818 0 0 0 19-20.5c.65.304 1.317.637 2 1 1.091-1.515 2.424-2.348 4-2.5 16.167 12.506 23.5 29.006 22 49.5a4.934 4.934 0 0 1 3 .5 12.93 12.93 0 0 1-5 .5h-9a183.446 183.446 0 0 0-22-2c-.347 6.209-2.014 12.042-5 17.5 2.287 2.048 2.454 4.215.5 6.5-.669-2.528-1.502-2.528-2.5 0a6.846 6.846 0 0 1 1 4 57.487 57.487 0 0 0-10-8c-.548-1.894-1.548-3.56-3-5a48.954 48.954 0 0 0 6-16.5 379.915 379.915 0 0 0-27-4.5c-3.835.785-7.335-.215-10.5-3l-1 2c-4.442-1.194-7.609-3.86-9.5-8a6.802 6.802 0 0 0-3-1.5l2-1c-.228-.399-.562-.565-1-.5a97.402 97.402 0 0 0-9-21c.304-.65.637-1.317 1-2a19.953 19.953 0 0 1-3-4.5l1-1.5a73.631 73.631 0 0 1 20-8Z"/><path style="opacity:.998" fill="#67b946" d="M87.5 210.5c.667 0 1 .333 1 1a43.791 43.791 0 0 0-4 8.5c-.927 18.605.573 37.105 4.5 55.5 2.346 8.086 5.18 15.586 8.5 22.5-.556.383-.89.883-1 1.5-4.665-.557-8.998-1.89-13-4a5.577 5.577 0 0 1 1-3 95.565 95.565 0 0 1-3.5-9c-.667 2.667-1.333 2.667-2 0-4.89-19.47-7.724-39.137-8.5-59a10841.4 10841.4 0 0 0 17-14Z"/><path style="opacity:1" fill="#5ab746" d="M88.5 211.5a176.639 176.639 0 0 1 20 7c-3.081 17.693-2.248 35.359 2.5 53a462.081 462.081 0 0 0 10.5 28 80.25 80.25 0 0 1-25 0c.11-.617.444-1.117 1-1.5-3.32-6.914-6.154-14.414-8.5-22.5-3.927-18.395-5.427-36.895-4.5-55.5a43.791 43.791 0 0 1 4-8.5Z"/><path style="opacity:1" fill="#4cb547" d="M108.5 218.5h5c2.995 1.743 6.329 2.743 10 3a45.733 45.733 0 0 0 9 3h-5c-2.828 23.84 1.838 46.006 14 66.5-.752.671-1.086 1.504-1 2.5-5.893 3.063-12.226 5.063-19 6a462.081 462.081 0 0 1-10.5-28c-4.748-17.641-5.581-35.307-2.5-53Z"/><path style="opacity:1" fill="#40b349" d="M132.5 224.5h3c1.068.934 2.401 1.268 4 1a70.3 70.3 0 0 0 16 4c-2.266-.359-4.099.308-5.5 2-1.038 17.122 2.629 33.122 11 48a18.473 18.473 0 0 0 3.5 2c-7.135 5.568-15.135 9.568-24 12-.086-.996.248-1.829 1-2.5-12.162-20.494-16.828-42.66-14-66.5h5Z"/><path style="opacity:.994" fill="#6dba46" d="M70.5 224.5c.776 19.863 3.61 39.53 8.5 59 .667 2.667 1.333 2.667 2 0a95.565 95.565 0 0 0 3.5 9 5.577 5.577 0 0 0-1 3c-12.044-5.203-21.877-13.203-29.5-24-6-10.333-6-20.667 0-31 4.728-6.23 10.228-11.563 16.5-16Z"/><path style="opacity:.999" fill="#32b14a" d="m196.5 185.5 4 7a59.425 59.425 0 0 0-5.5 7l-1-1c-3.585 3.809-5.418 8.142-5.5 13-.346 1.196-.846 1.196-1.5 0a16.2 16.2 0 0 0-1.5 3.5c.909 1.789 1.076 3.623.5 5.5l-1-3c-1.702 4.113-1.869 8.28-.5 12.5a16.2 16.2 0 0 1-1.5 3.5 20.076 20.076 0 0 0-6-1c-2.302.1-4.302.767-6 2-.319 13.742 2.848 26.076 9.5 37a99.567 99.567 0 0 1-16 10 18.473 18.473 0 0 1-3.5-2c-8.371-14.878-12.038-30.878-11-48 1.401-1.692 3.234-2.359 5.5-2h1a106.228 106.228 0 0 0 18 2 31.625 31.625 0 0 1 2-7.5 3.943 3.943 0 0 0-1-2c1.263-1.705 1.597-3.372 1-5 3.113-10.274 7.613-19.441 13.5-27.5a17.64 17.64 0 0 1 6.5-4Z"/><path style="opacity:1" fill="#20ac4b" d="M213.5 210.5a75.114 75.114 0 0 0 17 12c.438-.065.772.101 1 .5l-2 1a6.802 6.802 0 0 1 3 1.5c1.891 4.14 5.058 6.806 9.5 8l1-2c3.165 2.785 6.665 3.785 10.5 3a379.915 379.915 0 0 1 27 4.5 48.954 48.954 0 0 1-6 16.5c1.452 1.44 2.452 3.106 3 5a108.035 108.035 0 0 0-22.5-11 2.428 2.428 0 0 0-.5 2c-3.005 1.224-6.005 1.224-9 0a233.14 233.14 0 0 0 1 47v20c-7.227-.05-14.727-.05-22.5 0a9.454 9.454 0 0 0-1.5-2.5c-9.927-3.265-17.427-9.431-22.5-18.5-.671.752-1.504 1.086-2.5 1a540.135 540.135 0 0 1 18.5-21 47.848 47.848 0 0 0 4.5-8 107.585 107.585 0 0 0 8-20.5l-1-1.5a107.864 107.864 0 0 1-11 2.5c-2.756.517-5.089 1.684-7 3.5-.333-1.333-.667-1.333-1 0a47.586 47.586 0 0 0-12 5c-1.593-.848-2.76-2.181-3.5-4-2.128-6.474-2.961-13.141-2.5-20a79.547 79.547 0 0 1 17.5 1c.099-4.044-.067-7.878-.5-11.5 2.36-3.211 4.36-6.711 6-10.5-2.625-1.034-2.625-2.034 0-3Z"/><path style="opacity:.999" fill="#6cba46" d="M401.5 236.5a10.134 10.134 0 0 0 1.5 4l19 21c13.575 17.271 12.075 33.104-4.5 47.5-26.569 18.237-53.903 19.237-82 3a156.4 156.4 0 0 1-14-10.5c-.572-1.723-.572-3.223 0-4.5 11.841-14.375 18.841-30.875 21-49.5-.318-1.147-.984-1.981-2-2.5a216.796 216.796 0 0 0 21-1.5 128.427 128.427 0 0 0 21-2 78.47 78.47 0 0 0 10-2 71.194 71.194 0 0 0 9-3Z"/><path style="opacity:1" fill="#3cb24a" d="M315.5 242.5c-1.733 13.877-6.399 26.543-14 38h-3a47.06 47.06 0 0 1-11-12 6.846 6.846 0 0 0-1-4c.998-2.528 1.831-2.528 2.5 0 1.954-2.285 1.787-4.452-.5-6.5 2.986-5.458 4.653-11.291 5-17.5 7.422.229 14.756.896 22 2Z"/><path style="opacity:1" fill="#4bb547" d="M315.5 242.5h9c0 .667.333 1 1 1 .763.768 1.763 1.268 3 1.5-2.459 17.733-9.126 32.899-20 45.5-3.667-3-7-6.333-10-10h3c7.601-11.457 12.267-24.123 14-38Z"/><path style="opacity:1" fill="#5ab746" d="M325.5 243.5h36a216.796 216.796 0 0 1-21 1.5c1.016.519 1.682 1.353 2 2.5-2.159 18.625-9.159 35.125-21 49.5-.572 1.277-.572 2.777 0 4.5-5.219-2.546-9.552-6.213-13-11 10.874-12.601 17.541-27.767 20-45.5-1.237-.232-2.237-.732-3-1.5Z"/><path style="opacity:1" fill="#26b14c" d="M220.5 269.5c-18.412 14.411-34.412 31.077-48 50-3.908-4.305-6.908-9.305-9-15-.373-1.935.293-3.768 2-5.5-.07-.765-.403-1.265-1-1.5a274.703 274.703 0 0 1 44-44h1c1.911-1.816 4.244-2.983 7-3.5a107.864 107.864 0 0 0 11-2.5l1 1.5a107.585 107.585 0 0 1-8 20.5Z"/><path style="opacity:.998" fill="#30b34b" d="M254.5 251.5c4.966 8.481 11.299 15.981 19 22.5a121.314 121.314 0 0 1 18 13.5c-.06.543-.393.876-1 1-1.369-1.624-3.036-2.124-5-1.5-11.512 9.101-24.512 12.934-39 11.5a233.14 233.14 0 0 1-1-47c2.995 1.224 5.995 1.224 9 0Z"/><path style="opacity:1" fill="#3cb54a" d="M291.5 287.5c5.219 2.546 9.552 6.213 13 11-6.965 5.56-13.799 10.56-20.5 15-2.242-.675-4.409-.175-6.5 1.5 1.196.654 1.196 1.154 0 1.5l-2-1c-1.196.346-1.196.846 0 1.5-1.049.492-2.049.326-3-.5-.928 1.835-2.094 2.168-3.5 1-7.012 1.763-14.178 2.429-21.5 2-.667 0-1-.333-1-1v-20c14.488 1.434 27.488-2.399 39-11.5 1.964-.624 3.631-.124 5 1.5.607-.124.94-.457 1-1Z"/><path style="opacity:1" fill="#33b44d" d="M164.5 297.5c.597.235.93.735 1 1.5-1.707 1.732-2.373 3.565-2 5.5 2.092 5.695 5.092 10.695 9 15a286.426 286.426 0 0 0-12 19 295.288 295.288 0 0 1-11-16.5c2.49-1.354 2.49-2.521 0-3.5a121.242 121.242 0 0 1 15-21Z"/><path style="opacity:.998" fill="#48b748" d="M304.5 298.5a121.522 121.522 0 0 1 18 19 16000.932 16000.932 0 0 1-27 16.5c-14.297 5.714-28.797 9.214-43.5 10.5-1.087-2.432-1.587-2.098-1.5 1l-2-8a163.147 163.147 0 0 1-1-18c7.322.429 14.488-.237 21.5-2 1.406 1.168 2.572.835 3.5-1 .951.826 1.951.992 3 .5-1.196-.654-1.196-1.154 0-1.5l2 1c1.196-.346 1.196-.846 0-1.5 2.091-1.675 4.258-2.175 6.5-1.5 6.701-4.44 13.535-9.44 20.5-15Z"/><path style="opacity:1" fill="#2cb04a" d="M246.5 318.5c0 .667.333 1 1 1 .002 6.023.335 12.023 1 18a91.718 91.718 0 0 0-21 0l-2-.5 3-1c-2.027-.498-4.027-.331-6 .5-1.147-.318-1.981-.984-2.5-2-1.751.674-3.417 1.007-5 1a64.77 64.77 0 0 0-11.5-6.5L189 314.5a8.43 8.43 0 0 1-.5-4 60.95 60.95 0 0 1 9-12c.996.086 1.829-.248 2.5-1 5.073 9.069 12.573 15.235 22.5 18.5a9.454 9.454 0 0 1 1.5 2.5c7.773-.05 15.273-.05 22.5 0Z"/><path style="opacity:.999" fill="#57ba47" d="M322.5 317.5a62.722 62.722 0 0 1 6 9c-21.868 18.595-47.202 28.262-76 29v3l-2-4v-9c-.087-3.098.413-3.432 1.5-1 14.703-1.286 29.203-4.786 43.5-10.5 9.056-5.522 18.056-11.022 27-16.5Z"/><path style="opacity:1" fill="#39b249" d="M188.5 310.5a8.43 8.43 0 0 0 .5 4l14.5 14.5a64.77 64.77 0 0 1 11.5 6.5c1.583.007 3.249-.326 5-1 .519 1.016 1.353 1.682 2.5 2 1.973-.831 3.973-.998 6-.5l-3 1 2 .5a91.718 91.718 0 0 1 21 0l2 8v9c-19.463 2.894-38.13-.606-56-10.5a143.577 143.577 0 0 1-15.5-12.5c-.953 1.873-2.12 2.206-3.5 1 3.572-7.877 7.905-15.21 13-22Z"/><path style="opacity:1" fill="#61bb46" d="M328.5 326.5a58.37 58.37 0 0 1 5 9 189.838 189.838 0 0 1-31 19.5c-11.777 5.05-23.777 8.383-36 10a72.367 72.367 0 0 1-12 .5c.254-1.901-.08-2.567-1-2h-1v-8c28.798-.738 54.132-10.405 76-29Z"/><path style="opacity:1" fill="#41b349" d="m250.5 354.5 2 4v5c-.221 2.597-.721 2.597-1.5 0a9.201 9.201 0 0 1-4.5 2c-27.917 2.464-52.584-6.203-74-26a32.508 32.508 0 0 1 3-7c1.38 1.206 2.547.873 3.5-1a143.577 143.577 0 0 0 15.5 12.5c17.87 9.894 36.537 13.394 56 10.5Z"/><path style="opacity:1" fill="#3eb54b" d="M149.5 318.5c2.49.979 2.49 2.146 0 3.5a295.288 295.288 0 0 0 11 16.5 254.823 254.823 0 0 0-12 28 10.134 10.134 0 0 1-4-1.5 193.893 193.893 0 0 0-12-11.5 169.893 169.893 0 0 1 17-35Z"/><path style="opacity:1" fill="#6cbd44" d="M333.5 335.5a36.887 36.887 0 0 1 4 13c-.128 1.59-.795 2.923-2 4-23.446 16.702-49.446 26.036-78 28h-1a305.831 305.831 0 0 1-3-17c.92-.567 1.254.099 1 2a72.367 72.367 0 0 0 12-.5c12.223-1.617 24.223-4.95 36-10a189.838 189.838 0 0 0 31-19.5Z"/><path style="opacity:1" fill="#4cb547" d="M172.5 339.5c21.416 19.797 46.083 28.464 74 26a9.201 9.201 0 0 0 4.5-2c.779 2.597 1.279 2.597 1.5 0h1c.84 5.695 1.84 11.361 3 17-33.211 5.947-62.877-1.719-89-23a69.353 69.353 0 0 1 5-18Z"/><path style="opacity:.999" fill="#73bf45" d="M337.5 348.5c5.313 24.236-1.02 45.07-19 62.5-12.282 6.242-24.282 5.576-36-2a211.772 211.772 0 0 1-24-17.5 49.369 49.369 0 0 0-1-11c28.554-1.964 54.554-11.298 78-28 1.205-1.077 1.872-2.41 2-4Z"/><path style="opacity:.997" fill="#4db849" d="M132.5 353.5a193.893 193.893 0 0 1 12 11.5 10.134 10.134 0 0 0 4 1.5 262.92 262.92 0 0 0-6 27c-.802-1.452-1.302-3.118-1.5-5-.974 2.378-1.641 2.044-2-1l-1 2a148.386 148.386 0 0 0-10.5-10c.985-1.598 1.151-3.265.5-5l-1 3a2.428 2.428 0 0 1-.5-2 134.057 134.057 0 0 1 6-22Z"/><path style="opacity:.999" fill="#59b747" d="M167.5 357.5c26.123 21.281 55.789 28.947 89 23h1a49.369 49.369 0 0 1 1 11 8.43 8.43 0 0 0-4 .5 46.081 46.081 0 0 1-6 5.5c-3.919-1.357-8.252-2.024-13-2-4.999 1.279-9.832.945-14.5-1-18.307-1.566-35.641-7.899-52-19-.232 1.237-.732 2.237-1.5 3a57.33 57.33 0 0 1 0-21Z"/><path style="opacity:.997" fill="#60b847" d="M248.5 397.5a21.614 21.614 0 0 1-4 5c-13.886-.829-27.886-2.663-42-5.5-10.212-3.088-20.212-7.421-30-13a8.43 8.43 0 0 0-4-.5c-.801-1.542-1.134-3.208-1-5 .768-.763 1.268-1.763 1.5-3 16.359 11.101 33.693 17.434 52 19 4.668 1.945 9.501 2.279 14.5 1 4.748-.024 9.081.643 13 2Z"/><path style="opacity:.997" fill="#66b945" d="M168.5 383.5a8.43 8.43 0 0 1 4 .5c9.788 5.579 19.788 9.912 30 13 14.114 2.837 28.114 4.671 42 5.5-3.333 4-7 7.667-11 11-1.238-.31-1.238-.81 0-1.5-11.946-.746-24.113-2.912-36.5-6.5l-1 1a137.002 137.002 0 0 0-14-7l-1 1a69.543 69.543 0 0 0-9.5-8 71.194 71.194 0 0 1-3-9Z"/><path style="opacity:.996" fill="#58ba47" d="M142.5 393.5a300.134 300.134 0 0 1-1 13c-.821 3.141-1.321 6.475-1.5 10a42.769 42.769 0 0 0-1.5-9 180.781 180.781 0 0 0-13-9.5c-1.537-1.11-2.203-2.61-2-4.5.156-6.267 1.156-12.267 3-18a2.428 2.428 0 0 0 .5 2l1-3c.651 1.735.485 3.402-.5 5a148.386 148.386 0 0 1 10.5 10l1-2c.359 3.044 1.026 3.378 2 1 .198 1.882.698 3.548 1.5 5Z"/><path style="opacity:.995" fill="#6dba47" d="M171.5 392.5a69.543 69.543 0 0 1 9.5 8l1-1a137.002 137.002 0 0 1 14 7l1-1c12.387 3.588 24.554 5.754 36.5 6.5-1.238.69-1.238 1.19 0 1.5-17.388 16.55-34.221 15.884-50.5-2a110.696 110.696 0 0 1-11.5-19Z"/><path style="opacity:1" fill="#65bc48" d="M123.5 393.5c-.203 1.89.463 3.39 2 4.5a180.781 180.781 0 0 1 13 9.5 42.769 42.769 0 0 1 1.5 9c.179-3.525.679-6.859 1.5-10v22a4.934 4.934 0 0 1-.5 3l-1-5-1 1c-.918-2.132-2.251-2.799-4-2l-9.5-5.5a15.256 15.256 0 0 1-1.5-4.5c-.177 3.856-.677 7.523-1.5 11-1.315-11.185-.981-22.185 1-33Z"/><path style="opacity:.998" fill="#73bf46" d="M141.5 428.5c1.556 12.268 4.223 24.435 8 36.5a3.943 3.943 0 0 1-1 2l-16.5 5.5c-5.524-14.787-8.691-30.12-9.5-46 .823-3.477 1.323-7.144 1.5-11a15.256 15.256 0 0 0 1.5 4.5l9.5 5.5c1.749-.799 3.082-.132 4 2l1-1 1 5a4.934 4.934 0 0 0 .5-3Z"/></svg>